<?xml version="1.0" encoding="UTF-8" standalone="no"?>
<svg
   version="1.1"
   viewBox="0 0 64 42"
   fill="none"
   stroke="none"
   stroke-linecap="square"
   stroke-miterlimit="10"
   id="svg41"
   sodipodi:docname="airplane.svg"
   width="64"
   height="42"
   inkscape:version="1.2.1 (9c6d41e410, 2022-07-14)"
   xmlns:inkscape="http://www.inkscape.org/namespaces/inkscape"
   xmlns:sodipodi="http://sodipodi.sourceforge.net/DTD/sodipodi-0.dtd"
   xmlns="http://www.w3.org/2000/svg"
   xmlns:svg="http://www.w3.org/2000/svg">
  <defs
     id="defs45" />
  <sodipodi:namedview
     id="namedview43"
     pagecolor="#505050"
     bordercolor="#eeeeee"
     borderopacity="1"
     inkscape:showpageshadow="0"
     inkscape:pageopacity="0"
     inkscape:pagecheckerboard="0"
     inkscape:deskcolor="#505050"
     showgrid="false"
     inkscape:zoom="12.059259"
     inkscape:cx="30.308661"
     inkscape:cy="20.357801"
     inkscape:window-width="1920"
     inkscape:window-height="1001"
     inkscape:window-x="-9"
     inkscape:window-y="-9"
     inkscape:window-maximized="1"
     inkscape:current-layer="g615" />
  <clipPath
     id="g2cd3b45430e_0_7.0">
    <path
       d="M 0,0 H 960 V 540 H 0 Z"
       clip-rule="nonzero"
       id="path2" />
  </clipPath>
  <g
     clip-path="url(#g2cd3b45430e_0_7.0)"
     id="g39">
    <g
       id="g615">
      <g
         id="g694"
         transform="matrix(1.3333732,0,0,1.3333732,-6.7970035e-5,-0.00501583)">
        <g
           id="g478">
          <g
             id="g473">
            <path
               fill="#ffffff"
               d="m 37.89412,0.00376176 c -0.09507,0 -0.192635,0.00253512 -0.290199,0.00760537 C 35.294804,0.17107993 33.438508,1.9456667 33.1433,4.2678397 32.680478,4.0523542 32.202645,3.9534846 31.737319,3.9534846 c -1.773741,0 -3.364853,1.4475558 -3.364853,3.4274876 l 19.348524,0.017745 c 0,-2.2689357 -1.826275,-3.9649336 -3.897725,-3.9649336 -0.420291,0 -0.848091,0.070984 -1.273387,0.2180207 C 42.001992,1.4969495 40.068142,0.00376158 37.89412,0.00376176 Z"
               fill-rule="evenodd"
               id="path15" />
          </g>
          <path
             fill="#ffffff"
             d="m 37.916637,0.02650792 c -0.482838,0 -0.973179,0.07605371 -1.458519,0.23069626 1.561092,0.49434918 2.75943,1.77712192 3.174721,3.39453082 0.427795,-0.1470373 0.855594,-0.2180207 1.27589,-0.2180207 2.071449,0 3.900227,1.6959977 3.912735,3.9649339 h 2.899529 c 0,-2.253725 -1.826279,-3.947188 -3.897728,-3.947188 -0.41779,0 -0.848091,0.070983 -1.273388,0.2180204 -0.565396,-2.2055578 -2.51426,-3.64297296 -4.63324,-3.64297268 z"
             fill-rule="evenodd"
             id="path27" />
        </g>
        <g
           id="g664">
          <g
             id="g548">
            <g
               id="g533">
              <path
                 fill="#5f5ff6"
                 d="m 12.581414,0.3104881 c -0.40028,0 -0.625437,0.47660327 -0.382768,0.7909586 l 9.649246,12.5209763 h 7.913031 L 17.647455,1.9101507 C 16.571703,0.89103104 15.148208,0.31048764 13.674679,0.31048764 Z"
                 fill-rule="evenodd"
                 id="path7" />
              <g
                 id="g462">
                <g
                   id="g409">
                  <path
                     fill="#5f5ff6"
                     d="m 12.598894,0.3104881 c -0.15761,0 -0.295206,0.0709835 -0.382768,0.19520456 0.955669,0.24590701 1.823776,0.71997524 2.551785,1.40445854 L 26.878876,13.622423 h 2.882015 L 17.664936,1.9101512 C 16.589184,0.89103146 15.165688,0.31048806 13.674646,0.31048806 Z"
                     fill-rule="evenodd"
                     id="path9" />
                  <path
                     fill="#a6a6ff"
                     d="m 2.6519046,5.0587635 c -0.017512,0 -0.032523,0 -0.047533,0 H 0.48539023 c -0.26018187,0 -0.485339254,0.2104154 -0.485339254,0.4918141 V 17.049901 c 0,1.092638 0.885619104,1.987535 1.978883324,2.005281 H 47.598324 c 0.225159,0 0.40028,-0.174923 0.40028,-0.403084 v -0.01775 c 0,-0.509559 -0.192634,-1.021654 -0.555389,-1.371502 L 46.33244,16.119509 44.648762,14.413371 C 43.57301,13.305522 42.096978,12.689487 40.570912,12.689487 H 9.1789669 c -0.6929846,0 -1.3184218,-0.367593 -1.6636634,-0.983628 L 4.2855462,6.0246464 C 3.9478098,5.423822 3.3273762,5.0587641 2.6519046,5.0587635 Z"
                     fill-rule="evenodd"
                     id="path11" />
                </g>
                <path
                   fill="#5f5ff6"
                   d="m 23.809263,15.873651 c -0.15761,0 -0.295206,0.06845 -0.382767,0.174923 L 12.216158,30.625537 c -0.260181,0.334637 -0.03502,0.790959 0.382768,0.790959 h 1.075752 c 1.47353,0 2.897024,-0.562798 3.972777,-1.599663 L 31.669758,16.365465 c 0.190132,-0.174923 0.06755,-0.491814 -0.192635,-0.491814 z"
                   fill-rule="evenodd"
                   id="path13" />
              </g>
            </g>
            <g
               id="g341">
              <path
                 fill="#0e1a3f"
                 d="m 19.361147,14.882348 c -0.235165,0 -0.475332,0.08873 -0.672972,0.286469 -0.605423,0.616035 -0.190132,1.670647 0.677975,1.670647 0.537876,0 0.953167,-0.438577 0.970678,-0.965882 0,-0.595755 -0.477834,-0.991234 -0.975681,-0.991234 z"
                 fill-rule="evenodd"
                 id="path17" />
              <path
                 fill="#0e1a3f"
                 d="m 15.490898,14.882348 c -0.235164,0 -0.475332,0.08873 -0.670468,0.286469 -0.607925,0.616035 -0.175123,1.670647 0.675472,1.670647 0.537875,0 0.97318,-0.438577 0.97318,-0.965882 0,-0.595755 -0.480336,-0.991234 -0.978184,-0.991234 z"
                 fill-rule="evenodd"
                 id="path19" />
              <path
                 fill="#0e1a3f"
                 d="m 11.623222,14.882348 c -0.237666,0 -0.477835,0.08873 -0.672971,0.286469 -0.607924,0.616035 -0.172621,1.670647 0.692985,1.670647 0.520364,0 0.955667,-0.438577 0.955667,-0.965882 0,-0.595755 -0.480335,-0.991234 -0.975681,-0.991234 z"
                 fill-rule="evenodd"
                 id="path21" />
              <path
                 fill="#0e1a3f"
                 d="m 7.7704954,14.882348 c -0.2376661,0 -0.4778338,0.08873 -0.6729703,0.286469 -0.6079249,0.616035 -0.1726208,1.670647 0.6779737,1.670647 0.5378767,0 0.9706789,-0.438577 0.9706789,-0.965882 0,-0.595755 -0.4778338,-0.991234 -0.9756823,-0.991234 z"
                 fill-rule="evenodd"
                 id="path23" />
              <path
                 fill="#0e1a3f"
                 d="m 35.760086,14.882348 c -0.237663,0 -0.477833,0.08873 -0.67297,0.286469 -0.607925,0.616035 -0.172619,1.670647 0.695488,1.670647 0.520363,0 0.953163,-0.438577 0.953163,-0.965882 0,-0.595755 -0.477832,-0.991234 -0.975681,-0.991234 z"
                 fill-rule="evenodd"
                 id="path25" />
            </g>
          </g>
          <g
             id="g594">
            <path
               fill="#5f5ff6"
               d="m 40.275707,12.689535 v 1.952045 c 0,0.808705 0.642948,1.477978 1.441006,1.477978 h 4.615726 l -1.683674,-1.706139 c -1.075752,-1.107849 -2.551784,-1.723884 -4.07785,-1.723884 z"
               fill-rule="evenodd"
               id="path35" />
            <g
               id="g569">
              <path
                 fill="#a6a6ff"
                 d="m 43.432922,16.119516 1.128292,1.143341 c 0.34774,0.349848 0.537876,0.861942 0.537876,1.371502 v 0.01775 c 0,0.228161 -0.172622,0.403086 -0.380268,0.403086 h 2.879513 c 0.225159,0 0.40028,-0.174925 0.40028,-0.403086 v -0.01775 c 0,-0.50956 -0.192635,-1.003908 -0.537876,-1.371502 L 46.33245,16.119516 Z"
                 fill-rule="evenodd"
                 id="path33" />
              <path
                 fill="#5f5ff6"
                 d="m 40.275707,12.689535 v 0.616034 c 0.537876,0.281399 1.040726,0.651528 1.493545,1.10785 l 1.663663,1.706139 h 2.899524 l -1.666164,-1.723885 c -1.093262,-1.090103 -2.569294,-1.706138 -4.09536,-1.706138 z"
                 fill-rule="evenodd"
                 id="path37" />
            </g>
          </g>
        </g>
      </g>
    </g>
  </g>
</svg>
