<?xml version="1.0" encoding="UTF-8" standalone="no"?>
<svg
   version="1.1"
   viewBox="0 0 70 61.25"
   fill="none"
   stroke="none"
   stroke-linecap="square"
   stroke-miterlimit="10"
   id="svg49"
   sodipodi:docname="bag.svg"
   width="70"
   height="61.25"
   inkscape:version="1.2.1 (9c6d41e410, 2022-07-14)"
   xmlns:inkscape="http://www.inkscape.org/namespaces/inkscape"
   xmlns:sodipodi="http://sodipodi.sourceforge.net/DTD/sodipodi-0.dtd"
   xmlns="http://www.w3.org/2000/svg"
   xmlns:svg="http://www.w3.org/2000/svg">
  <defs
     id="defs53" />
  <sodipodi:namedview
     id="namedview51"
     pagecolor="#505050"
     bordercolor="#eeeeee"
     borderopacity="1"
     inkscape:showpageshadow="0"
     inkscape:pageopacity="0"
     inkscape:pagecheckerboard="0"
     inkscape:deskcolor="#505050"
     showgrid="false"
     inkscape:lockguides="false"
     inkscape:zoom="12.059259"
     inkscape:cx="26.411241"
     inkscape:cy="30.142813"
     inkscape:window-width="1920"
     inkscape:window-height="1001"
     inkscape:window-x="-9"
     inkscape:window-y="-9"
     inkscape:window-maximized="1"
     inkscape:current-layer="g47" />
  <clipPath
     id="g2cd3b45430e_0_46.0">
    <path
       d="M 0,0 H 960 V 540 H 0 Z"
       clip-rule="nonzero"
       id="path2" />
  </clipPath>
  <g
     clip-path="url(#g2cd3b45430e_0_46.0)"
     id="g47"
     transform="translate(2.8194103,1.6584767)">
    <g
       id="g333"
       transform="matrix(1.6680665,0,0,1.6680665,0.20309809,1.4043424)">
      <path
         fill="#ffee97"
         d="m 16.379599,0.00321502 c -1.161537,0 -2.18493,0.8342095 -2.430205,1.98862048 l -0.941634,4.676629 h 1.265849 L 15.164496,2.797957 c 0.129686,-0.5449045 0.589226,-0.9409433 1.158716,-0.9409433 0.01973,0 0.03665,0 0.05639,0 h 5.666718 c 0.566671,0 1.076957,0.3763774 1.212282,0.9409433 l 0.862694,3.8705075 h 1.268669 L 24.445508,1.9918355 C 24.203051,0.83742442 23.179659,0.00321502 22.018124,0.00321502 Z"
         fill-rule="evenodd"
         id="path7" />
      <path
         fill="#fff4b8"
         d="m 1.2429748,18.496252 v 12.95693 c 0,1.0224 0.837321,1.828522 1.8607132,1.828522 H 35.29403 c 1.023392,0 1.860714,-0.806122 1.860714,-1.828522 v -12.95693 z"
         fill-rule="evenodd"
         id="path9" />
      <path
         fill="#5f5ff6"
         d="m 35.962128,6.1572742 c -0.01691,0 -0.03383,0 -0.04793,0 H 2.4833871 c -1.3758,0 -2.48095096,1.1038527 -2.45557756,2.4745407 V 17.260407 C 0.00243618,19.976502 2.2409307,22.178591 4.9671575,22.178591 H 33.458625 c 2.723407,0 4.936531,-2.202089 4.936531,-4.918184 V 8.6318149 c 0,-1.3538351 -1.079777,-2.4745407 -2.433026,-2.4745407 z"
         fill-rule="evenodd"
         id="path13" />
      <path
         fill="#0e1a3f"
         d="M 6.207604,6.1572742 V 33.281723 H 9.903657 V 6.1572742 Z"
         fill-rule="evenodd"
         id="path15" />
      <path
         fill="#ffee97"
         d="m 9.9037,20.324816 v 3.092472 H 6.207647 V 20.324816 Z M 6.207647,19.088949 c -0.6738038,0 -1.2404757,0.564566 -1.2404757,1.235867 v 3.092472 c 0,0.696579 0.5666718,1.235866 1.2404757,1.235866 H 9.9037 c 0.701997,0 1.240476,-0.564565 1.240476,-1.235866 v -3.092472 c 0,-0.671301 -0.538479,-1.235867 -1.240476,-1.235867 z"
         fill-rule="evenodd"
         id="path23" />
      <path
         fill="#ffee97"
         d="m 8.054321,19.147963 c -0.2903838,0 -0.5779486,0.196615 -0.6061411,0.584228 v 1.82852 c -0.028193,0.351097 0.2706494,0.617934 0.6202383,0.617934 0.3242149,0 0.5948639,-0.266837 0.5948639,-0.617934 v -1.82852 C 8.6350896,19.344578 8.3447053,19.147963 8.054321,19.147963 Z"
         fill-rule="evenodd"
         id="path25" />
      <path
         fill="#0e1a3f"
         d="M 28.49395,6.1572742 V 33.281723 h 3.724247 V 6.1572742 Z"
         fill-rule="evenodd"
         id="path29" />
      <path
         fill="#ffee97"
         d="m 32.189938,20.324816 v 3.092472 h -3.696053 v -3.092472 z m -3.696053,-1.235867 c -0.673803,0 -1.240474,0.564566 -1.240474,1.235867 v 3.092472 c 0,0.696579 0.566671,1.235866 1.240474,1.235866 h 3.724247 c 0.673802,0 1.240475,-0.564565 1.212281,-1.235866 v -3.092472 c 0,-0.671301 -0.538479,-1.235867 -1.212281,-1.235867 z"
         fill-rule="evenodd"
         id="path37" />
      <path
         fill="#ffee97"
         d="m 30.346231,19.069267 c -0.327036,0 -0.651251,0.221895 -0.61178,0.662874 v 1.82852 c 0,0.351099 0.270649,0.617933 0.620237,0.617933 0.324215,0 0.620238,-0.266834 0.620238,-0.617933 v -1.82852 c 0.02819,-0.440979 -0.301661,-0.662874 -0.628695,-0.662874 z"
         fill-rule="evenodd"
         id="path39" />
      <path
         fill="#ffee97"
         d="m 16.729158,17.26043 c -0.349588,0 -0.620237,0.269644 -0.620237,0.617933 v 1.235865 c 0,0.323011 0.270649,0.617933 0.620237,0.617933 h 4.939348 c 0.349588,0 0.620237,-0.294922 0.620237,-0.617933 v -1.235865 c 0,-0.348289 -0.270649,-0.617933 -0.620237,-0.617933 z"
         fill-rule="evenodd"
         id="path43" />
    </g>
  </g>
</svg>
