<?xml version="1.0" encoding="UTF-8" standalone="no"?>
<svg
   version="1.1"
   viewBox="0 0 64 64"
   fill="none"
   stroke="none"
   stroke-linecap="square"
   stroke-miterlimit="10"
   id="svg31"
   sodipodi:docname="clock.svg"
   width="64"
   height="64"
   inkscape:version="1.2.1 (9c6d41e410, 2022-07-14)"
   xmlns:inkscape="http://www.inkscape.org/namespaces/inkscape"
   xmlns:sodipodi="http://sodipodi.sourceforge.net/DTD/sodipodi-0.dtd"
   xmlns="http://www.w3.org/2000/svg"
   xmlns:svg="http://www.w3.org/2000/svg">
  <defs
     id="defs35" />
  <sodipodi:namedview
     id="namedview33"
     pagecolor="#505050"
     bordercolor="#eeeeee"
     borderopacity="1"
     inkscape:showpageshadow="0"
     inkscape:pageopacity="0"
     inkscape:pagecheckerboard="0"
     inkscape:deskcolor="#505050"
     showgrid="false"
     inkscape:zoom="8.527184"
     inkscape:cx="6.0981445"
     inkscape:cy="25.272118"
     inkscape:window-width="1920"
     inkscape:window-height="1001"
     inkscape:window-x="-9"
     inkscape:window-y="-9"
     inkscape:window-maximized="1"
     inkscape:current-layer="g29" />
  <clipPath
     id="g2cd3b45430e_0_97.0">
    <path
       d="M 0,0 H 960 V 540 H 0 Z"
       clip-rule="nonzero"
       id="path2" />
  </clipPath>
  <g
     clip-path="url(#g2cd3b45430e_0_97.0)"
     id="g29">
    <path
       fill="#000000"
       fill-opacity="0"
       d="M 0,0 H 960 V 540 H 0 Z"
       fill-rule="evenodd"
       id="path5" />
    <g
       id="g1715"
       transform="matrix(1.5690445,0,0,1.5690445,-0.0058086,0.00164729)">
      <path
         fill="#0e1a3f"
         d="m 20.3969,-0.00104987 c -11.264919,0 -20.393198,9.13103697 -20.393198,20.39595387 0,11.240109 9.128279,20.36839 20.393198,20.36839 11.267677,0 20.395958,-9.128281 20.395958,-20.36839 0,-11.2649179 -9.128281,-20.39595387 -20.395958,-20.39595387 z"
         fill-rule="evenodd"
         id="path7" />
      <g
         id="g1703">
        <path
           fill="#5f5ff6"
           d="m 20.402424,2.7559056 c -4.554491,0 -9.106224,1.7037983 -12.511065,5.105881 -6.806923,6.8344924 -6.806923,18.2317474 0,25.0386704 3.40484,3.404838 7.956573,5.10588 12.511065,5.10588 4.554489,0 9.111736,-1.701042 12.527603,-5.10588 6.806923,-6.806923 6.806923,-18.204176 0,-25.0386704 -3.415867,-3.402083 -7.973114,-5.105881 -12.527603,-5.105881 z"
           fill-rule="evenodd"
           id="path9" />
        <g
           id="g1693">
          <path
             fill="#ffee97"
             d="m 20.39686,2.9158278 c -0.322563,0 -0.645126,0.2233136 -0.606529,0.6726971 v 2.8479352 c 0,0.3446192 0.264667,0.6092868 0.606529,0.6092868 0.34462,0 0.609287,-0.2646675 0.609287,-0.6092868 V 3.5885249 C 21.044744,3.1391414 20.722181,2.9158278 20.39686,2.9158278 Z"
             fill-rule="evenodd"
             id="path13" />
          <path
             fill="#ffee97"
             d="m 20.39686,33.699974 c -0.322563,0 -0.645126,0.2178 -0.606529,0.6534 v 2.847935 c 0,0.34462 0.264667,0.634098 0.606529,0.634098 0.34462,-0.02757 0.609287,-0.289478 0.609287,-0.634098 v -2.847935 c 0.0386,-0.4356 -0.283966,-0.6534 -0.609287,-0.6534 z"
             fill-rule="evenodd"
             id="path15" />
          <path
             fill="#ffee97"
             d="m 37.277782,19.70572 c -0.02481,0 -0.04687,0 -0.07168,0.0028 h -2.850689 c -0.763679,0.05238 -0.763679,1.160679 0,1.21306 H 37.2061 c 0.02482,0.0028 0.04687,0.0055 0.07168,0.0055 0.774704,0 0.774704,-1.221333 0,-1.221333 z"
             fill-rule="evenodd"
             id="path17" />
          <path
             fill="#ffee97"
             d="m 3.5904756,19.708452 c -0.7636766,0.05238 -0.7636766,1.160677 0,1.21306 h 2.8506918 c 0.7636766,-0.05238 0.7636766,-1.160679 0,-1.21306 z"
             fill-rule="evenodd"
             id="path19" />
          <path
             fill="#ffee97"
             d="m 18.367788,18.363045 -5.990865,9.472898 c -0.190229,0.297751 0.06341,0.645129 0.361161,0.645129 0.07444,0 0.148877,-0.0193 0.220557,-0.06617 l 9.470142,-5.988108 z"
             fill-rule="evenodd"
             id="path21" />
          <path
             fill="#8686fa"
             d="m 28.099787,12.29504 c -0.0772,0 -0.157146,0.02481 -0.234343,0.07995 l -9.472898,5.988108 4.063753,4.063751 5.963293,-9.497711 c 0.206772,-0.292237 -0.02757,-0.6341 -0.319805,-0.6341 z"
             fill-rule="evenodd"
             id="path25" />
        </g>
      </g>
    </g>
  </g>
</svg>
