<?xml version="1.0" encoding="UTF-8" standalone="no"?>
<svg
   version="1.1"
   viewBox="0 0 63.999999 64.160003"
   fill="none"
   stroke="none"
   stroke-linecap="square"
   stroke-miterlimit="10"
   id="svg21"
   sodipodi:docname="details.svg"
   width="64"
   height="64.160004"
   inkscape:version="1.2.1 (9c6d41e410, 2022-07-14)"
   xmlns:inkscape="http://www.inkscape.org/namespaces/inkscape"
   xmlns:sodipodi="http://sodipodi.sourceforge.net/DTD/sodipodi-0.dtd"
   xmlns="http://www.w3.org/2000/svg"
   xmlns:svg="http://www.w3.org/2000/svg">
  <defs
     id="defs25" />
  <sodipodi:namedview
     id="namedview23"
     pagecolor="#505050"
     bordercolor="#eeeeee"
     borderopacity="1"
     inkscape:showpageshadow="0"
     inkscape:pageopacity="0"
     inkscape:pagecheckerboard="0"
     inkscape:deskcolor="#505050"
     showgrid="false"
     inkscape:lockguides="true"
     inkscape:zoom="12.059259"
     inkscape:cx="28.401413"
     inkscape:cy="32.464681"
     inkscape:window-width="1920"
     inkscape:window-height="1001"
     inkscape:window-x="-9"
     inkscape:window-y="-9"
     inkscape:window-maximized="1"
     inkscape:current-layer="g19"
     showguides="true" />
  <clipPath
     id="p.0">
    <path
       d="M 0,0 H 960 V 540 H 0 Z"
       clip-rule="nonzero"
       id="path2" />
  </clipPath>
  <g
     clip-path="url(#p.0)"
     id="g19"
     transform="translate(0.41461888,-0.16584729)">
    <g
       id="g403"
       transform="matrix(1.6668187,0,0,1.6668187,-0.417787,0.16042981)">
      <path
         fill="#0e1a3f"
         d="m 13.677251,0.00325019 c -0.599384,0 -1.157336,0.43869874 -1.276108,1.07605351 L 11.724419,4.3847193 C 10.926161,4.622003 10.127902,4.9420599 9.4097463,5.3393721 L 6.5785538,3.4686941 C 6.3603445,3.316943 6.1034656,3.242447 5.8465868,3.242447 c -0.3452673,0 -0.6905346,0.1324375 -0.9418893,0.3862755 L 3.6285892,4.9420598 C 3.189409,5.3807586 3.1120692,6.0567406 3.468385,6.6140812 l 1.8754923,2.789462 C 4.9046974,10.120912 4.5870514,10.915536 4.3881774,11.751547 l -3.3504746,0.637354 c -0.5993842,0.121401 -1.0358021,0.678742 -1.0358021,1.316097 v 1.790663 c 0,0.637355 0.43641797,1.194696 1.0358021,1.316097 l 3.3504746,0.675981 c 0.198874,0.797385 0.51652,1.592009 0.9556999,2.309378 L 3.468385,22.625206 c -0.3563159,0.518713 -0.278976,1.194694 0.1602042,1.67478 l 1.2761083,1.271951 c 0.2513547,0.253838 0.596622,0.386275 0.9418893,0.386275 0.2568788,0 0.5137577,-0.0745 0.731967,-0.226246 l 2.8311925,-1.870678 c 0.7181557,0.397312 1.5164147,0.717369 2.3146727,0.954653 l 0.676724,3.305414 c 0.118772,0.637356 0.676724,1.076053 1.276108,1.076053 h 1.834061 c 0.638053,0 1.157336,-0.438697 1.276108,-1.076053 l 0.676724,-3.305414 c 0.798258,-0.237284 1.596516,-0.557341 2.353342,-0.954653 l 2.792522,1.870678 c 0.218209,0.15175 0.475088,0.226246 0.731966,0.226246 0.345269,0 0.690537,-0.132437 0.941891,-0.386275 l 1.276108,-1.271951 c 0.43918,-0.480086 0.516519,-1.156067 0.157442,-1.67478 l -1.87273,-2.828089 c 0.43918,-0.717369 0.756826,-1.511993 0.997131,-2.309378 l 3.309044,-0.675981 c 0.599384,-0.121401 1.035801,-0.678742 1.077234,-1.316097 v -1.790663 c -0.04143,-0.637355 -0.47785,-1.194696 -1.077234,-1.316097 L 24.841816,11.751547 C 24.601511,10.915536 24.283865,10.15954 23.883354,9.4035432 l 1.834061,-2.789462 C 26.076492,6.0567406 25.999153,5.3807586 25.559973,4.9420598 L 24.283865,3.6287225 C 24.032511,3.3748845 23.687243,3.242447 23.341974,3.242447 c -0.256878,0 -0.513757,0.074496 -0.731966,0.2262471 l -2.792522,1.870678 C 19.060659,4.9420599 18.262402,4.622003 17.464144,4.3847193 L 16.78742,1.0793037 C 16.668648,0.44194884 16.149365,0.00325019 15.511312,0.00325019 Z"
         fill-rule="evenodd"
         id="path7" />
      <path
         fill="#a6a6ff"
         d="m 14.594313,8.20891 c -5.7010546,0 -8.573679,6.889502 -4.546481,10.912287 1.306492,1.316095 2.919581,1.906546 4.499525,1.906546 3.297994,0 6.466166,-2.557698 6.466166,-6.406657 0,-3.545458 -2.869861,-6.4121754 -6.41921,-6.412176 z"
         fill-rule="evenodd"
         id="path9" />
      <path
         fill="#5f5ff6"
         d="m 14.594293,11.434277 c -2.831192,0 -4.267505,3.424057 -2.27324,5.416136 0.660152,0.659428 1.466696,0.954653 2.256668,0.954653 1.643473,0 3.206842,-1.27471 3.206842,-3.184015 0,-1.793423 -1.436311,-3.186774 -3.19027,-3.186774 z"
         fill-rule="evenodd"
         id="path11" />
      <path
         fill="#ffffff"
         d="m 28.189533,19.159765 c -0.397747,0 -0.756826,0.320057 -0.875597,0.717369 l -0.397749,2.190735 c -0.560715,0.118643 -1.077234,0.358685 -1.555084,0.637356 l -1.834061,-1.233324 c -0.15468,-0.104845 -0.331457,-0.154511 -0.502708,-0.154511 -0.23202,0 -0.455754,0.09105 -0.615958,0.273154 l -0.836929,0.83601 c -0.278974,0.278671 -0.359077,0.755996 -0.11877,1.076053 l 1.234676,1.870678 c -0.278976,0.480086 -0.47785,0.996039 -0.638054,1.514752 l -2.151707,0.438699 c -0.43918,0.07726 -0.718156,0.43594 -0.718156,0.874638 v 1.194696 c 0,0.400071 0.278976,0.758755 0.718156,0.83601 l 2.151707,0.4387 c 0.160204,0.518713 0.359078,1.037424 0.638054,1.553379 l -1.234676,1.83205 c -0.198874,0.358685 -0.160204,0.797383 0.11877,1.114682 l 0.836929,0.838768 c 0.179539,0.15451 0.394986,0.234527 0.610432,0.234527 0.174015,0 0.34803,-0.04967 0.508234,-0.157272 l 1.834061,-1.194695 c 0.47785,0.240044 0.994369,0.480088 1.555084,0.598728 l 0.436419,2.190735 c 0.0801,0.397313 0.43918,0.717369 0.836927,0.717369 h 1.198769 c 0.397747,0 0.756826,-0.320056 0.836927,-0.717369 l 0.436419,-2.190735 c 0.560714,-0.11864 1.077234,-0.358684 1.555084,-0.598728 l 1.83406,1.194695 c 0.160202,0.107605 0.334217,0.157272 0.508233,0.157272 0.215446,0 0.430892,-0.08002 0.610435,-0.234527 l 0.836926,-0.838768 c 0.278976,-0.317299 0.317646,-0.755997 0.118774,-1.114682 l -1.234676,-1.83205 c 0.278976,-0.515955 0.477848,-1.034666 0.638053,-1.553379 l 2.151707,-0.4387 c 0.439179,-0.07726 0.718155,-0.435939 0.718155,-0.83601 v -1.194696 c 0,-0.438698 -0.278976,-0.797382 -0.718155,-0.874638 l -2.151707,-0.438699 c -0.160205,-0.518713 -0.400512,-1.034666 -0.638053,-1.514752 l 1.234676,-1.870678 c 0.198872,-0.320057 0.160202,-0.797382 -0.118774,-1.076053 l -0.836926,-0.83601 c -0.182304,-0.182103 -0.403275,-0.273154 -0.627007,-0.273154 -0.168491,0 -0.336982,0.04967 -0.491661,0.154511 l -1.83406,1.233324 c -0.51652,-0.278671 -0.99437,-0.518713 -1.555084,-0.637356 l -0.436419,-2.190735 c -0.0801,-0.397312 -0.43918,-0.717369 -0.836927,-0.717369 z"
         fill-rule="evenodd"
         id="path13" />
      <path
         fill="#ffee97"
         d="m 28.788906,23.979975 c -4.267506,0 -6.41921,5.178852 -3.389145,8.205599 0.98056,0.976727 2.184853,1.415424 3.367048,1.415424 2.472115,0 4.847555,-1.917583 4.847555,-4.800855 -0.04143,-2.668061 -2.15447,-4.820168 -4.825458,-4.820168 z"
         fill-rule="evenodd"
         id="path15" />
      <path
         fill="#5f5ff6"
         d="m 28.788942,25.930666 c -2.552218,0 -3.866995,3.068132 -2.032934,4.900183 0.577286,0.576654 1.295442,0.83601 1.997026,0.83601 1.480505,0 2.905769,-1.139513 2.905769,-2.866717 0,-1.594766 -1.276107,-2.869476 -2.869861,-2.869476 z"
         fill-rule="evenodd"
         id="path17" />
    </g>
  </g>
</svg>
