<?xml version="1.0" encoding="UTF-8" standalone="no"?>
<svg
   version="1.1"
   viewBox="0 0 149 177"
   fill="none"
   stroke="none"
   stroke-linecap="square"
   stroke-miterlimit="10"
   id="svg106"
   sodipodi:docname="img_top.svg"
   width="149"
   height="177"
   inkscape:version="1.2.1 (9c6d41e410, 2022-07-14)"
   xmlns:inkscape="http://www.inkscape.org/namespaces/inkscape"
   xmlns:sodipodi="http://sodipodi.sourceforge.net/DTD/sodipodi-0.dtd"
   xmlns:xlink="http://www.w3.org/1999/xlink"
   xmlns="http://www.w3.org/2000/svg"
   xmlns:svg="http://www.w3.org/2000/svg">
  <defs
     id="defs110" />
  <sodipodi:namedview
     id="namedview108"
     pagecolor="#505050"
     bordercolor="#eeeeee"
     borderopacity="1"
     inkscape:showpageshadow="0"
     inkscape:pageopacity="0"
     inkscape:pagecheckerboard="0"
     inkscape:deskcolor="#505050"
     showgrid="false"
     inkscape:lockguides="false"
     inkscape:zoom="4.263592"
     inkscape:cx="2.4627122"
     inkscape:cy="85.960383"
     inkscape:window-width="1920"
     inkscape:window-height="1001"
     inkscape:window-x="-9"
     inkscape:window-y="-9"
     inkscape:window-maximized="1"
     inkscape:current-layer="g104" />
  <clipPath
     id="g2cd3b45430e_0_114.0">
    <path
       d="M 0,0 H 960 V 540 H 0 Z"
       clip-rule="nonzero"
       id="path2" />
  </clipPath>
  <g
     clip-path="url(#g2cd3b45430e_0_114.0)"
     id="g104"
     transform="translate(-2.3454402,-4.4563364)">
    <path
       fill="#000000"
       fill-opacity="0"
       d="M 0,0 H 960 V 540 H 0 Z"
       fill-rule="evenodd"
       id="path5" />
    <g
       filter="url(#shadowFilter-g2cd3b45430e_0_114.1)"
       id="g9">
      <use
         xlink:href="#g2cd3b45430e_0_114.1"
         transform="translate(0,2)"
         id="use7" />
    </g>
    <defs
       id="defs24">
      <filter
         id="shadowFilter-g2cd3b45430e_0_114.1"
         filterUnits="userSpaceOnUse">
        <feGaussianBlur
           in="SourceAlpha"
           stdDeviation="2.0"
           result="blur"
           id="feGaussianBlur11" />
        <feComponentTransfer
           in="blur"
           color-interpolation-filters="sRGB"
           id="feComponentTransfer21">
          <feFuncR
             type="linear"
             slope="0"
             intercept="0.37254903"
             id="feFuncR13" />
          <feFuncG
             type="linear"
             slope="0"
             intercept="0.37254903"
             id="feFuncG15" />
          <feFuncB
             type="linear"
             slope="0"
             intercept="0.9647059"
             id="feFuncB17" />
          <feFuncA
             type="linear"
             slope="0.498"
             intercept="0"
             id="feFuncA19" />
        </feComponentTransfer>
      </filter>
    </defs>
    <g
       id="g2cd3b45430e_0_114.1">
      <path
         fill="#ffffff"
         d="M 59.795895,13.38407 C 21.254628,21.935209 11.531285,42.759337 9.536747,56.681426 8.4091006,64.545501 9.748066,70.20542 9.748066,70.20542 l 2.719359,12.25782 10.985019,49.5162 1.130446,5.0956 c 0,0 0.581236,2.81954 2.43688,6.79404 0.227819,0.48697 0.474941,0.99052 0.737785,1.50624 2.608845,5.08072 7.155617,11.53708 14.832829,16.56308 0.525917,0.33995 1.067276,0.67908 1.619938,1.01047 5.838001,3.46144 13.338284,6.0818 22.937046,6.79886 1.571067,0.12109 3.197281,0.1856 4.88665,0.19435 6.426536,0.0458 13.701569,-0.72031 21.929031,-2.54573 4.427688,-0.98238 8.473981,-2.12279 12.166171,-3.40383 1.64217,-0.56787 3.21512,-1.15429 4.7161,-1.77173 1.98411,-0.81073 3.85018,-1.6605 5.61477,-2.54518 8.01773,-4.03853 13.8072,-8.80121 17.9674,-13.74774 3.12532,-3.70714 5.32626,-7.5197 6.87611,-11.20344 1.22727,-2.93116 2.03618,-5.78776 2.55113,-8.44345 1.74723,-8.98002 0.15807,-15.70903 0.15807,-15.70903 0,0 -0.0808,-0.37607 -0.2364,-1.07737 l -1.75112,-7.89335 -0.048,-0.21635 -0.61073,-2.752976 -0.33434,-1.50705 -2.77895,-12.526398 -1.59663,-7.197021 -4.12125,-18.576965 -0.63279,-2.852448 -2.71936,-12.257816 c 0,0 -9.06004,-43.71493477 -69.387334,-30.330135 z"
         fill-rule="evenodd"
         id="path26" />
      <path
         stroke="#ffffff"
         stroke-width="12"
         stroke-miterlimit="1.391"
         stroke-linecap="butt"
         d="M 59.795895,13.38407 C 21.254628,21.935209 11.531285,42.759337 9.536747,56.681426 8.4091006,64.545501 9.748066,70.20542 9.748066,70.20542 l 2.719359,12.25782 10.985019,49.5162 1.130446,5.0956 c 0,0 0.581236,2.81954 2.43688,6.79404 0.227819,0.48697 0.474941,0.99052 0.737785,1.50624 2.608845,5.08072 7.155617,11.53708 14.832829,16.56308 0.525917,0.33995 1.067276,0.67908 1.619938,1.01047 5.838001,3.46144 13.338284,6.0818 22.937046,6.79886 1.571067,0.12109 3.197281,0.1856 4.88665,0.19435 6.426536,0.0458 13.701569,-0.72031 21.929031,-2.54573 4.427688,-0.98238 8.473981,-2.12279 12.166171,-3.40383 1.64217,-0.56787 3.21512,-1.15429 4.7161,-1.77173 1.98411,-0.81073 3.85018,-1.6605 5.61477,-2.54518 8.01773,-4.03853 13.8072,-8.80121 17.9674,-13.74774 3.12532,-3.70714 5.32626,-7.5197 6.87611,-11.20344 1.22727,-2.93116 2.03618,-5.78776 2.55113,-8.44345 1.74723,-8.98002 0.15807,-15.70903 0.15807,-15.70903 0,0 -0.0808,-0.37607 -0.2364,-1.07737 l -1.75112,-7.89335 -0.048,-0.21635 -0.61073,-2.752976 -0.33434,-1.50705 -2.77895,-12.526398 -1.59663,-7.197021 -4.12125,-18.576965 -0.63279,-2.852448 -2.71936,-12.257816 c 0,0 -9.06004,-43.71493477 -69.387334,-30.330135 z"
         fill-rule="evenodd"
         id="path28" />
    </g>
    <defs
       id="defs36">
      <linearGradient
         id="g2cd3b45430e_0_114.2"
         gradientUnits="userSpaceOnUse"
         gradientTransform="matrix(12.409955,-2.7533932,2.7533932,12.409955,0,0)"
         spreadMethod="pad"
         x1="-0.44755325"
         y1="2.0475585"
         x2="-0.44759816"
         y2="14.457514">
        <stop
           offset="0.0"
           stop-color="#8686fa"
           id="stop31" />
        <stop
           offset="1.0"
           stop-color="#ececff"
           id="stop33" />
      </linearGradient>
    </defs>
    <path
       fill="url(#g2cd3b45430e_0_114.2)"
       d="m 144.0175,110.58135 c 0,0 1.59521,6.73288 -0.15559,15.70848 -0.51744,2.65625 -1.33049,5.50593 -2.55361,8.444 v 0 0 c -1.54242,3.68209 -3.75079,7.4963 -6.87611,11.20343 -4.16077,4.94406 -9.95078,9.70425 -17.9641,13.73919 v 0 c -1.76156,0.8866 -3.62956,1.73941 -5.61367,2.55014 -1.50953,0.61412 -3.08137,1.20552 -4.71609,1.77175 -3.7002,1.28019 -7.746486,2.42061 -12.166736,3.40132 -8.23243,1.82654 -15.504417,2.59456 -21.933441,2.54933 -1.687989,-0.0143 -3.314202,-0.0788 -4.88472,-0.19739 -9.602348,-0.72148 -17.102077,-3.33935 -22.940079,-6.80079 -0.555146,-0.33086 -1.093472,-0.66803 -1.619938,-1.01047 -7.673073,-5.01909 -12.223982,-11.48236 -14.826761,-16.55921 -0.268358,-0.5171 -0.513552,-1.02371 -0.740267,-1.5057 -1.855921,-3.98747 -2.439913,-6.79596 -2.439913,-6.79596 L 23.455477,131.98137 12.471563,82.470146 9.7527554,70.214821 c 0,0 -1.3395176,-5.662407 -0.2093897,-13.527035 C 11.535971,42.768738 21.259316,21.944606 59.805543,13.392366 120.12539,0.0092195 129.18928,43.71808 129.18928,43.71808 l 2.72048,12.262791 11.87326,53.520069 c 0.14895,0.69495 0.23448,1.08041 0.23448,1.08041 z"
       fill-rule="evenodd"
       id="path38"
       style="fill:url(#g2cd3b45430e_0_114.2)" />
    <defs
       id="defs45">
      <linearGradient
         id="g2cd3b45430e_0_114.3"
         gradientUnits="userSpaceOnUse"
         gradientTransform="matrix(8.0106206,-1.7773141,1.7773141,8.0106206,0,0)"
         spreadMethod="pad"
         x1="-0.362519"
         y1="3.1720538"
         x2="-0.36254799"
         y2="11.182674">
        <stop
           offset="0.0"
           stop-color="#adadfd"
           id="stop40" />
        <stop
           offset="1.0"
           stop-color="#5f5ff6"
           id="stop42" />
      </linearGradient>
    </defs>
    <path
       fill="url(#g2cd3b45430e_0_114.3)"
       d="m 129.18323,43.714207 2.71936,12.257816 0.63225,2.84996 c -2.46855,2.13675 -5.40811,4.239712 -8.87303,6.052185 -1.22024,0.638642 -2.50611,1.239662 -3.85818,1.800576 -1.42872,0.590965 -2.92694,1.126899 -4.50679,1.600051 -1.37414,0.414475 -2.80728,0.774193 -4.30635,1.083306 -1.02751,0.204491 -2.08479,0.392105 -3.17269,0.547371 -1.06363,0.14727 -2.15789,0.238708 -3.28605,0.259399 -1.31846,0.0316 -2.68159,-0.02083 -4.08554,-0.139862 -1.345492,-0.113746 -2.727382,-0.297691 -4.142924,-0.539406 -1.125702,-0.191208 -2.268509,-0.412544 -3.43393,-0.66539 C 86.056917,67.3284 78.593042,64.801727 70.822786,62.173428 69.761873,61.816505 68.700411,61.457096 67.628473,61.097401 62.355085,59.324131 56.967256,57.56321 51.574483,56.108673 49.605176,55.577557 47.632287,55.088985 45.671811,54.644627 44.634626,54.418121 43.605165,54.20295 42.576532,54.00325 41.536866,53.800781 40.505201,53.622627 39.471879,53.460499 33.890241,52.574936 28.385583,52.259384 23.087811,52.829449 22.117936,52.929825 21.156337,53.067505 20.195842,53.233643 16.515464,53.875385 12.949837,54.987431 9.5309585,56.690537 11.528528,42.77039 21.24939,21.946807 59.795623,13.39457 120.12374,0.00175862 129.18322,43.714207 129.18322,43.714207 Z"
       fill-rule="evenodd"
       id="path47"
       style="fill:url(#g2cd3b45430e_0_114.3)" />
    <path
       fill="#0e1a3f"
       d="m 136.6569,77.41442 c -0.87941,0.296883 -1.78474,0.617775 -2.69669,0.979271 -7.54678,2.968605 -9.94635,9.794594 -12.62718,16.90216 -1.13514,3.017693 -2.32956,6.085069 -3.98151,8.933009 -0.42161,0.71717 -0.86775,1.42933 -1.35279,2.11882 -0.55093,0.77978 -1.14627,1.53548 -1.80007,2.26241 -0.51648,0.57121 -1.07212,1.13024 -1.66912,1.66714 -2.84467,2.55419 -6.6212,4.6054 -11.85991,5.79381 l -0.18366,0.0407 c -17.926689,3.97739 -26.249297,5.83175 -33.598922,12.71752 -0.560326,0.52614 -1.119004,1.08323 -1.668015,1.6721 -0.518409,0.55078 -1.03379,1.12697 -1.548885,1.73963 -0.526955,0.61789 -1.05611,1.27281 -1.58913,1.95729 -0.400933,0.51687 -0.802968,1.05226 -1.212449,1.61277 -0.130981,0.17258 -0.256443,0.34653 -0.383838,0.52353 -0.665093,0.92252 -1.337078,1.89615 -2.031121,2.93468 -0.246513,0.36781 -0.500747,0.74777 -0.748916,1.13159 0,0 0.09184,0.14401 0.274971,0.40607 0.199402,0.2767 0.512428,0.68996 0.941006,1.21327 0.03834,0.0437 0.07419,0.0879 0.113075,0.13408 0.39521,0.47853 0.889427,1.03946 1.479065,1.65489 0.484562,0.50568 1.035862,1.05394 1.657486,1.62575 1.082737,1.00702 2.379753,2.09956 3.906769,3.21935 0.337005,0.25138 0.689453,0.50196 1.051834,0.75033 1.036117,0.71468 2.168197,1.43938 3.395416,2.15862 2.963265,1.72482 6.506462,3.39924 10.690262,4.80368 l 0.64283,0.20964 c 6.350288,2.0614 14.130951,3.49234 23.549312,3.58406 1.61573,0.0172 3.28442,-0.009 4.9986,-0.0758 1.35043,-0.0517 2.73562,-0.13468 4.14921,-0.24217 0.64226,-0.0512 1.28039,-0.10927 1.91356,-0.16625 8.01331,-4.03494 13.80333,-8.79513 17.96409,-13.7392 3.12532,-3.70712 5.3337,-7.52133 6.87612,-11.20343 1.22311,-2.93806 2.03616,-5.78775 2.5536,-8.44399 1.74971,-8.98058 0.15587,-15.6955 0.15587,-15.6955 l -0.24056,-1.08428 -7.12031,-32.095631 z"
       fill-rule="evenodd"
       id="path49" />
    <defs
       id="defs56">
      <linearGradient
         id="g2cd3b45430e_0_114.4"
         gradientUnits="userSpaceOnUse"
         gradientTransform="matrix(7.2631933,-1.6114826,1.6114826,7.2631933,0,0)"
         spreadMethod="pad"
         x1="-0.76469338"
         y1="17.439041"
         x2="-0.76471967"
         y2="24.702234">
        <stop
           offset="0.0"
           stop-color="#8686fa"
           id="stop51" />
        <stop
           offset="1.0"
           stop-color="#ececff"
           id="stop53" />
      </linearGradient>
    </defs>
    <path
       fill="url(#g2cd3b45430e_0_114.4)"
       d="m 134.84108,144.85762 c 0,0 -0.10257,0.38284 -0.40889,1.07964 -4.16077,4.94406 -9.95078,9.70425 -17.9641,13.73919 v 0 c -1.76155,0.8866 -3.62956,1.73941 -5.61367,2.55014 -1.50953,0.61412 -3.08137,1.20552 -4.71609,1.77175 -3.7002,1.28019 -7.746484,2.42061 -12.166734,3.40132 -8.23243,1.82654 -15.504417,2.59456 -21.933441,2.54933 -1.687988,-0.0143 -3.314201,-0.0788 -4.88472,-0.19739 -9.602348,-0.72148 -17.102077,-3.33935 -22.940079,-6.80079 -0.555145,-0.33086 -1.093472,-0.66803 -1.619938,-1.01047 -7.673073,-5.01909 -12.223982,-11.48236 -14.826761,-16.55921 -0.268358,-0.5171 -0.513552,-1.02371 -0.740267,-1.5057 -1.855921,-3.98748 -2.439913,-6.79596 -2.439913,-6.79596 l -1.130998,-5.0981 c 3.604067,-3.63854 8.682423,-6.85268 15.638664,-7.57675 7.024357,-0.73396 11.916054,0.7039 15.745831,3.14188 2.853508,1.81701 5.120495,4.19468 7.23526,6.63744 0.345291,0.40612 0.697475,0.80808 1.032841,1.21639 0.241867,0.28032 0.48291,0.56866 0.720367,0.85257 0.981815,1.16247 1.960873,2.31251 2.979916,3.39629 0.474906,0.49737 0.955612,0.98564 1.446785,1.45071 3.255668,3.06634 7.10749,5.29852 12.893684,5.22806 0.493629,-0.005 1.006835,-0.0277 1.526107,-0.0698 1.290039,-0.10097 2.671631,-0.30574 4.160767,-0.63613 1.543739,-0.34251 3.015495,-0.66905 4.420799,-0.97824 0.511269,-0.11343 1.012612,-0.22467 1.504578,-0.3312 v 0 c 1.398407,-0.30506 2.73835,-0.59191 4.011284,-0.8639 0.562561,-0.11698 1.10527,-0.22956 1.638054,-0.33995 0.290931,-0.0619 0.576896,-0.12277 0.860939,-0.18057 0.946975,-0.19185 1.862805,-0.37155 2.749385,-0.54217 1.592,-0.30103 3.08307,-0.56401 4.49968,-0.78699 0.93154,-0.14406 1.8344,-0.27654 2.70638,-0.3839 v 0 c 0.26115,-0.0318 0.52119,-0.0687 0.77656,-0.0914 0.58462,-0.0645 1.15436,-0.12565 1.71996,-0.17025 1.20318,-0.10518 2.35589,-0.16785 3.48958,-0.18715 0.68997,-0.0122 1.37195,-0.002 2.04014,0.017 2.62809,0.0849 5.16575,0.41945 7.86889,1.03042 0.72473,0.16796 1.45774,0.34976 2.20867,0.55368 0.77713,0.21635 1.57054,0.44737 2.39042,0.70382 1.60833,0.51206 3.30324,1.10927 5.12006,1.78641 z"
       fill-rule="evenodd"
       id="path58"
       style="fill:url(#g2cd3b45430e_0_114.4)" />
    <path
       fill="#fbfbff"
       d="m 104.04497,122.99867 2.61077,0.91065 c -0.33697,0.19479 -0.67258,0.38405 -0.99466,0.57554 z m -6.698303,6.2768 0.732277,1.59878 c -0.279625,0.10118 -0.577446,0.21424 -0.88768,0.33003 z m 8.977733,0.80525 0.0472,0.013 c -0.0174,0.004 -0.0427,0.007 -0.0601,0.0107 z m 1.98591,-2.76287 1.12475,2.44062 c -0.45805,0.0364 -0.90093,0.0825 -1.32396,0.12414 z m 6.33525,-20.69603 c -4.09264,0.90803 -9.47197,2.47206 -11.75629,4.75841 -2.29701,2.29961 -3.317178,9.12222 -3.764947,14.36969 -4.58252,-0.80717 -10.544716,-1.67093 -13.205307,-1.08062 -0.176209,0.0391 -0.340294,0.0859 -0.487275,0.13942 -3.841652,1.38204 -13.098183,8.93354 -13.098183,8.93354 l 4.33091,-0.77304 3.666748,-2.38171 -0.550583,1.82602 5.035851,0.38565 2.325729,-1.70062 v 0 l 0.26384,3.09086 4.551811,-0.70462 c -2.714035,1.35884 -5.292649,3.0112 -6.539833,4.79608 -3.262039,4.66378 -4.356659,19.76651 -4.356659,19.76651 l 2.188232,-4.0811 0.440186,-7.3593 2.158264,5.53815 6.950813,-3.62437 -2.652527,-6.66269 v 0 l 4.566757,4.281 2.287384,-1.90867 -1.48426,-5.03539 3.468117,4.68134 2.017072,-6.82463 v 0 c 0.28773,1.52 0.6287,3.31521 1.01464,5.32483 0.92968,4.89489 2.10928,11.0807 3.38213,17.78074 0.23835,1.26219 0.48112,2.54428 0.72719,3.84129 1.6452,-0.56593 3.21705,-1.15733 4.71802,-1.77476 l -0.44607,-2.1398 -3.88104,-18.49198 -0.93598,-4.46556 4.2662,4.78084 1.12751,-5.71661 0.81718,5.18599 2.88846,0.74206 2.29015,-5.82844 0.45385,7.16354 7.83325,0.29468 -0.42398,-5.92555 3.55098,6.46334 3.72802,2.74236 c 0,0 -7.46238,-13.1781 -12.40435,-15.99294 -1.60753,-0.91928 -3.85921,-1.29119 -6.16713,-1.37666 v 0 l 5.78363,-1.17363 -0.82833,-2.99432 2.76878,0.78949 4.59225,-2.10696 -1.1451,-1.52286 4.2643,0.9691 4.33752,-0.76667 c 0,0 -11.29799,-3.88084 -15.38627,-3.84528 -0.30169,0.002 -0.65026,0.0503 -1.03743,0.13625 -1.78697,0.39647 -4.41083,1.61007 -7.05317,3.01042 l 0.18613,-0.3231 -3.87132,-5.11372 5.86333,2.82438 2.89254,-8.14868 -4.86859,-2.29622 v 0 l 6.35286,-0.76762 3.45163,-2.67059 c 0,0 -2.26901,0.31295 -5.19765,0.96273 z"
       fill-rule="evenodd"
       id="path60" />
    <path
       fill="#f8eba8"
       d="m 141.03221,97.124855 -2.05508,-0.741699 1.78985,1.682487 0.60507,0.56765 0.6102,2.750477 -0.19992,0.21396 -1.18738,1.26802 -1.04509,1.11121 v 0 l -1.38288,1.47839 -0.59514,-0.40548 -0.10176,-0.0713 -1.52591,-1.04437 -2.55429,-1.74771 -1.05211,-0.71635 -0.30722,-0.21103 c 0,0 0.11769,-0.74889 0.3556,-1.941929 0.73909,-3.676079 2.61656,-11.552574 5.58199,-14.454498 0.0905,-0.0853 0.19028,-0.175285 0.2901,-0.265274 l 2.77893,12.526398 z"
       fill-rule="evenodd"
       id="path62" />
    <defs
       id="defs69">
      <linearGradient
         id="g2cd3b45430e_0_114.5"
         gradientUnits="userSpaceOnUse"
         gradientTransform="matrix(6.5764455,-1.4591141,1.4591141,6.5764455,0,0)"
         spreadMethod="pad"
         x1="11.657369"
         y1="17.492212"
         x2="11.657345"
         y2="24.068657">
        <stop
           offset="0.0"
           stop-color="#fff4b8"
           id="stop64" />
        <stop
           offset="1.0"
           stop-color="#ffee97"
           id="stop66" />
      </linearGradient>
    </defs>
    <path
       fill="url(#g2cd3b45430e_0_114.5)"
       d="m 141.78122,101.59276 c -1.90417,0.0207 -3.3914,0.13667 -3.91701,0.18544 -0.1299,0.0132 -0.20215,0.0161 -0.20215,0.0161 l -0.0305,1.18879 -0.75063,0.41964 -1.09804,-2.91884 c 0,0 -0.14395,0.0319 -0.4004,0.0967 -2.70124,-1.130632 -14.4356,-6.368036 -18.08427,-5.876832 -4.01186,0.532638 -14.53597,5.915262 -14.53597,5.915262 l 4.35469,0.15582 4.04268,-1.544051 -0.91434,1.653621 4.79462,1.42287 2.6065,-1.16279 -0.38587,3.04977 7.75991,0.45706 c -1.37906,0.83827 -2.57777,1.80872 -3.35372,2.88892 -3.27776,4.58114 -4.53041,19.52324 -4.53041,19.52324 l 2.21609,-4.01421 0.5152,-7.2794 2.07829,5.50632 6.92186,-3.50837 -2.55352,-6.62725 4.47521,4.29089 2.28628,-1.86669 -1.41366,-4.99886 3.37767,4.67269 1.89927,-3.27073 c 1.00199,5.66685 2.61005,14.75828 4.3751,24.75684 1.22973,-2.9317 2.03976,-5.78333 2.5572,-8.43958 l -2.67755,-13.83004 1.33673,1.15417 1.25365,-4.12684 -1.75112,-7.89334 c -0.0877,0.004 -0.17097,0.004 -0.25178,0.004 z m -14.45351,1.82649 0.56189,-1.9042 0.33765,1.49849 c -0.30196,0.12961 -0.60033,0.26366 -0.89954,0.40571 z"
       fill-rule="evenodd"
       id="path71"
       style="fill:url(#g2cd3b45430e_0_114.5)" />
    <defs
       id="defs78">
      <linearGradient
         id="g2cd3b45430e_0_114.6"
         gradientUnits="userSpaceOnUse"
         gradientTransform="matrix(7.1670369,-1.5901484,1.5901484,7.1670369,0,0)"
         spreadMethod="pad"
         x1="-0.65166497"
         y1="17.558836"
         x2="-0.65169096"
         y2="24.725874">
        <stop
           offset="0.0"
           stop-color="#fff4b8"
           id="stop73" />
        <stop
           offset="1.0"
           stop-color="#ffee97"
           id="stop75" />
      </linearGradient>
    </defs>
    <path
       fill="url(#g2cd3b45430e_0_114.6)"
       d="m 88.484344,130.5868 c 0,0 -11.650299,-2.01793 -15.635674,-1.34244 -1.809303,0.3075 -5.101845,2.55663 -8.234703,4.97383 l 0.302742,-0.79516 -4.584133,-4.39456 6.174053,1.84219 1.550637,-8.42239 -5.119484,-1.47864 6.091636,-1.74555 2.958519,-3.1561 c 0,0 -12.464256,3.80916 -15.679432,8.2616 -2.430408,3.36509 -2.945556,11.44292 -3.053131,15.19545 v 0 c -4.828525,-1.11787 -12.923855,-2.82864 -15.643162,-1.97482 -2.535652,0.78958 -7.491283,4.12263 -10.592442,6.31886 0.225337,0.48752 0.474942,0.99053 0.737786,1.50624 l 0.839435,-0.11317 3.723847,-2.20653 -0.619261,1.78647 4.969408,0.59087 2.373993,-1.5887 0.129818,3.07364 7.728111,-0.87185 c -1.219658,1.06383 -2.236343,2.22092 -2.816757,3.4195 -1.28022,2.64545 -1.539638,7.97897 -1.495213,12.47534 0.526467,0.34244 1.064793,0.67963 1.619938,1.01047 l -0.504997,-5.06999 2.979756,5.07408 6.224636,-4.63222 -3.638089,-6.10481 5.135063,3.47389 1.937962,-2.22777 -2.243977,-4.692 4.12661,4.03424 1.347996,-3.63113 c 1.985901,5.38331 4.943794,13.41075 7.578148,20.57844 1.571068,0.1211 3.197838,0.18808 4.88472,0.19739 l -7.551002,-18.76579 v 0 l 1.18779,0.71756 0.717445,-5.72217 1.165192,5.06441 2.899475,0.53347 1.859398,-5.91551 0.946907,7.0385 7.756286,-0.25186 -0.825775,-5.82335 3.95192,6.13432 3.875549,2.45653 c 0,0 -8.280815,-12.50075 -13.354866,-14.93663 -0.787628,-0.38103 -1.708435,-0.62293 -2.705078,-0.77231 l 3.750374,-1.40614 -1.276451,-2.79575 2.83245,0.33699 4.160904,-2.78358 -1.359909,-1.30561 4.318299,0.27349 z m -26.183681,5.47017 c -0.345245,0.2749 -0.672565,0.54843 -0.993542,0.81535 l -2.050163,-1.35336 z m -13.330971,8.37721 0.241718,-1.97406 0.577835,1.4191 c -0.276588,0.17357 -0.549862,0.36206 -0.819553,0.55496 z m 15.856998,-4.5619 -0.08086,-0.98664 0.607033,0.91687 c -0.167114,0.0214 -0.352158,0.0442 -0.526169,0.0698 z"
       fill-rule="evenodd"
       id="path80"
       style="fill:url(#g2cd3b45430e_0_114.6)" />
    <path
       fill="#0e1a3f"
       d="m 20.881424,49.41027 c -0.429367,0.09526 -0.74704,0.306648 -0.959911,0.63829 -0.212321,0.334126 -0.276551,0.690194 -0.191588,1.073174 l 4.644814,20.937012 c 0.08496,0.38298 0.288776,0.679581 0.610061,0.895317 0.318804,0.216286 0.680619,0.2743 1.087649,0.183998 l 11.694664,-2.594696 c 0.384693,-0.08535 0.682785,-0.279343 0.89566,-0.587501 0.218388,-0.306771 0.284275,-0.655381 0.19931,-1.038361 -0.08551,-0.385468 -0.293186,-0.675987 -0.624122,-0.876533 -0.325424,-0.199166 -0.678688,-0.253861 -1.063381,-0.168511 l -0.0017,-0.0075 -10.240276,2.27201 L 22.574171,50.49068 C 22.489209,50.107704 22.282912,49.811657 21.949217,49.598674 21.618556,49.387626 21.263636,49.32547 20.881424,49.41027 Z"
       fill-rule="evenodd"
       id="path82" />
    <path
       fill="#0e1a3f"
       d="m 39.13324,45.360744 c -0.384693,0.08535 -0.673958,0.29565 -0.887108,0.614307 -0.212322,0.33413 -0.27021,0.683571 -0.184143,1.071526 l 4.644814,20.937012 c 0.08551,0.385468 0.286293,0.68013 0.619438,0.890625 0.333694,0.212982 0.688614,0.275139 1.073307,0.189789 l 12.032204,-2.669586 c 0.384693,-0.08535 0.677822,-0.278237 0.895107,-0.589989 0.218391,-0.30677 0.284828,-0.652893 0.199863,-1.035866 -0.07503,-0.338219 -0.278842,-0.611328 -0.612537,-0.824314 -0.333145,-0.210499 -0.683655,-0.276241 -1.068344,-0.190891 l -10.582779,2.347999 -1.817871,-8.19426 9.056416,-2.009346 c 0.384693,-0.08535 0.683338,-0.276855 0.903381,-0.576168 0.221699,-0.291851 0.281796,-0.631347 0.195729,-1.019298 -0.08993,-0.405361 -0.29126,-0.702507 -0.619439,-0.890622 C 52.6531,53.223545 52.300385,53.171337 51.915692,53.25669 l -9.058895,2.009896 -1.683254,-7.587464 10.580296,-2.347446 c 0.38221,-0.0848 0.681408,-0.273819 0.901451,-0.573132 0.220596,-0.296825 0.283726,-0.634384 0.197659,-1.022335 -0.08496,-0.38298 -0.287121,-0.672115 -0.618058,-0.872665 -0.330387,-0.198063 -0.684753,-0.257732 -1.066967,-0.172932 z"
       fill-rule="evenodd"
       id="path84" />
    <path
       fill="#0e1a3f"
       d="m 56.54673,41.49983 c -0.387173,0.0859 -0.683338,0.276859 -0.903381,0.576172 -0.221699,0.291851 -0.286759,0.632446 -0.201245,1.01791 0.08607,0.387955 0.289604,0.671566 0.61723,0.857193 0.327629,0.185631 0.678409,0.240875 1.065586,0.154972 l 6.42313,-1.425098 4.373924,19.715958 c 0.08496,0.38298 0.286293,0.680126 0.605103,0.896415 0.321281,0.215737 0.695503,0.271 1.12239,0.176289 0.429367,-0.09527 0.747589,-0.304161 0.959916,-0.638291 0.209838,-0.333576 0.271583,-0.689094 0.186622,-1.072074 l -4.373924,-19.715958 6.423126,-1.425099 c 0.38221,-0.0848 0.681412,-0.273819 0.901451,-0.573131 0.216736,-0.290749 0.284279,-0.631897 0.198212,-1.019848 -0.08441,-0.380493 -0.291535,-0.668526 -0.614197,-0.855255 -0.327622,-0.185631 -0.681442,-0.242813 -1.063652,-0.158009 z"
       fill-rule="evenodd"
       id="path86" />
    <path
       fill="#0e1a3f"
       d="m 78.274,36.436543 c -0.36235,0.0804 -0.708435,0.245895 -1.031616,0.479374 -0.32457,0.239006 -0.575501,0.516472 -0.753075,0.842888 -0.17923,0.318962 -0.237388,0.655418 -0.1847,0.998588 0.06014,0.271069 0.160813,0.478352 0.291809,0.611061 0.139,0.133545 0.305565,0.227051 0.506607,0.276383 0.09182,-0.114307 0.221428,-0.210903 0.377785,-0.292561 0.162697,-0.08828 0.319611,-0.143974 0.478447,-0.179214 0.27301,-0.06057 0.511276,-0.0195 0.719765,0.122108 0.209594,0.146584 0.341156,0.328747 0.390808,0.552567 0.07558,0.340702 0.05768,0.670833 -0.04874,0.989296 -0.110291,0.324539 -0.287041,0.595978 -0.548729,0.813205 -0.242669,0.197354 -0.496086,0.357949 -0.761094,0.489808 -0.266105,0.12688 -0.357643,0.395073 -0.267166,0.802921 0.07448,0.335728 0.232788,0.556312 0.481263,0.655132 0.248474,0.09882 0.531143,0.116993 0.846336,0.04706 0.402069,-0.08921 0.781235,-0.316841 1.12262,-0.679603 0.348823,-0.364414 0.638076,-0.809548 0.875747,-1.334561 0.23465,-0.526951 0.401177,-1.067489 0.492142,-1.619968 0.09097,-0.552475 0.08073,-1.056404 -0.01913,-1.506531 -0.184822,-0.833103 -0.550529,-1.425159 -1.098511,-1.770641 -0.549629,-0.35294 -1.173149,-0.452046 -1.870567,-0.29731 z"
       fill-rule="evenodd"
       id="path88" />
    <path
       fill="#0e1a3f"
       d="m 92.10722,33.25778 c -1.553665,0.344711 -2.875938,0.922497 -3.959381,1.731705 -1.08786,0.812793 -1.859947,1.769493 -2.32151,2.881691 -0.470116,1.108879 -0.556351,2.304798 -0.27002,3.595489 0.230614,1.039513 0.60241,1.893757 1.120079,2.572125 0.520699,0.680305 1.156929,1.212337 1.915322,1.602459 0.76474,0.383499 1.614952,0.659313 2.563339,0.814193 0.943413,0.155987 1.963218,0.245446 3.055816,0.263958 1.236557,0.03354 2.343499,0.140198 3.315606,0.331566 0.975959,0.185295 1.783432,0.51495 2.420494,0.992005 0.634575,0.477607 1.055175,1.164467 1.255435,2.067203 0.16497,0.743576 0.0779,1.454357 -0.27093,2.124054 -0.34991,0.664723 -0.87962,1.246704 -1.601281,1.738197 -0.71862,0.493428 -1.572929,0.84475 -2.568168,1.065564 -1.285622,0.28524 -2.492386,0.31554 -3.614785,0.09228 -1.127357,-0.222153 -2.224128,-0.670273 -3.294433,-1.32779 -0.303909,-0.196109 -0.614433,-0.257679 -0.929634,-0.187744 -0.38469,0.08535 -0.673409,0.298138 -0.86863,0.638909 -0.198257,0.338836 -0.252556,0.692699 -0.17366,1.048324 0.0502,0.226307 0.150322,0.431099 0.295387,0.615487 0.14093,0.177474 0.309983,0.317394 0.499169,0.418933 1.413376,0.818844 2.807975,1.341786 4.179123,1.559426 1.370033,0.212669 2.895034,0.137855 4.560386,-0.231636 1.504021,-0.333699 2.804786,-0.91454 3.878306,-1.745026 1.08399,-0.830204 1.86408,-1.809551 2.34826,-2.937202 0.48279,-1.122132 0.58916,-2.309471 0.31386,-3.550423 -0.25985,-1.171318 -0.66613,-2.122284 -1.21606,-2.840458 -0.5469,-0.71624 -1.21485,-1.262112 -2.01267,-1.63044 -0.790387,-0.369976 -1.688031,-0.624832 -2.707013,-0.769268 -1.012909,-0.140568 -2.0989,-0.223171 -3.265953,-0.24865 -1.074676,-0.04336 -2.066902,-0.149379 -2.976127,-0.315559 -0.914193,-0.165077 -1.676163,-0.465691 -2.295571,-0.910133 -0.620788,-0.438916 -1.024284,-1.09565 -1.214622,-1.953621 -0.169373,-0.76347 -0.09469,-1.471501 0.224891,-2.10862 0.320397,-0.64513 0.839638,-1.203911 1.56157,-1.682419 0.721382,-0.480995 1.601059,-0.835334 2.638488,-1.065509 0.697411,-0.154736 1.413857,-0.21193 2.146584,-0.160538 0.732719,0.05139 1.436218,0.182327 2.106354,0.385898 0.673721,0.207997 1.250099,0.481945 1.727752,0.827374 0.238823,0.114006 0.481225,0.138504 0.729416,0.08344 0.359871,-0.07984 0.653561,-0.293732 0.869741,-0.633934 0.2181,-0.343243 0.29282,-0.675541 0.22275,-0.991375 -0.096,-0.432716 -0.41867,-0.807312 -0.96334,-1.137875 -0.917527,-0.626178 -2.043801,-1.031223 -3.369713,-1.209324 -1.326462,-0.180587 -2.682144,-0.117248 -4.054627,0.187264 z"
       fill-rule="evenodd"
       id="path90" />
    <path
       fill="#fbfbff"
       d="m 25.693548,77.35784 c -0.588209,0.130501 -1.038521,0.413063 -1.355904,0.848778 -0.316829,0.438209 -0.408626,0.951729 -0.277872,1.541115 0.130204,0.586906 0.431649,1.018394 0.906266,1.291442 0.4771,0.272492 1.003273,0.343613 1.591482,0.213112 l 5.311243,-1.178405 3.937526,17.74884 c 0.130204,0.586898 0.440472,1.034698 0.935223,1.339805 0.491718,0.303169 1.054569,0.387032 1.687454,0.246613 0.652737,-0.144821 1.143311,-0.457184 1.474476,-0.948151 0.328686,-0.49041 0.428478,-1.026581 0.298275,-1.61348 l -3.937527,-17.74884 5.301316,-1.1762 c 0.588207,-0.130509 1.043483,-0.41417 1.355903,-0.848786 0.314347,-0.437652 0.41166,-0.949791 0.281456,-1.53669 -0.130752,-0.589393 -0.43716,-1.019783 -0.909851,-1.29586 -0.475994,-0.267517 -1.003273,-0.34362 -1.59148,-0.213112 z"
       fill-rule="evenodd"
       id="path92" />
    <path
       fill="#fbfbff"
       d="m 54.506725,76.46283 c -0.560905,0.124443 -1.111328,0.319626 -1.644924,0.578918 -0.534149,0.256806 -1.014794,0.590455 -1.449383,0.979111 -0.431,0.393089 -0.800503,0.84037 -1.099403,1.347656 -0.212319,0.357613 -0.382718,0.739838 -0.509819,1.141167 v 0 l -0.100411,-0.452606 c -0.130756,-0.589394 -0.428066,-1.03746 -0.900478,-1.347519 -0.469933,-0.310616 -0.997486,-0.399696 -1.583214,-0.269745 -0.588207,0.130509 -1.028591,0.434349 -1.328045,0.915665 -0.293938,0.482704 -0.376907,1.012527 -0.246155,1.601921 l 3.10445,13.993652 c 0.130204,0.586906 0.430546,1.036903 0.900479,1.347519 0.474346,0.307022 1.002449,0.398598 1.590656,0.268089 0.583244,-0.129402 1.026665,-0.431312 1.313431,-0.922859 0.298351,-0.48629 0.378838,-1.015564 0.248638,-1.602471 l -1.78146,-8.030121 c -0.180408,-0.813209 -0.232853,-1.54261 -0.151821,-2.186821 0.086,-0.645301 0.255005,-1.209877 0.512543,-1.692329 0.263603,-0.478584 0.575474,-0.868721 0.952984,-1.15078 0.373924,-0.286491 0.7644,-0.474884 1.166465,-0.564094 0.449223,-0.09966 0.871979,-0.107353 1.25668,-0.02833 0.382774,0.08207 0.792568,0.07465 1.216972,-0.01952 0.454186,-0.100769 0.831696,-0.359352 1.143563,-0.772972 0.308834,-0.41555 0.381324,-0.99263 0.216365,-1.736206 C 57.219532,77.340401 56.888855,76.94149 56.339229,76.658997 55.792633,76.378441 55.18428,76.3125 54.506725,76.46283 Z"
       fill-rule="evenodd"
       id="path94" />
    <path
       fill="#fbfbff"
       d="m 68.015366,77.38481 c 0.995239,-0.22081 1.916031,-0.166786 2.768463,0.165939 0.851875,0.330246 1.583801,0.882798 2.193031,1.645218 0.607293,0.765465 1.030938,1.689087 1.271477,2.773369 0.236137,1.064385 0.240616,2.070572 0.01399,3.021057 -0.22303,0.954903 -0.659248,1.758804 -1.291542,2.418335 -0.631744,0.662026 -1.443306,1.100403 -2.438537,1.321213 -0.967941,0.21476 -1.876328,0.157982 -2.731239,-0.174194 -0.851876,-0.330246 -1.583802,-0.88279 -2.193032,-1.645218 -0.608398,-0.770439 -1.029281,-1.681626 -1.264862,-2.743523 -0.23999,-1.081795 -0.24723,-2.100418 -0.02061,-3.050903 0.22358,-0.952416 0.659241,-1.758805 1.291542,-2.418335 0.632294,-0.659538 1.430893,-1.097649 2.401314,-1.312958 z m 6.00563,-5.243782 c -0.588203,0.130508 -1.027488,0.439323 -1.33052,0.916214 -0.293945,0.482704 -0.375809,1.017502 -0.245606,1.604408 l 0.0099,0.04476 v 0 c -0.239372,-0.139977 -0.49916,-0.278038 -0.782661,-0.405609 -0.697991,-0.317421 -1.480087,-0.532677 -2.356766,-0.646065 -0.877235,-0.115875 -1.806297,-0.0663 -2.771751,0.147904 -1.513954,0.335899 -2.796509,1.045776 -3.857323,2.121322 -1.06385,1.073616 -1.800617,2.400826 -2.219955,3.973328 -0.416859,1.571953 -0.425293,3.282905 -0.01427,5.135627 0.406055,1.830346 1.128673,3.373879 2.178062,4.617905 1.045525,1.250099 2.289303,2.137886 3.727207,2.656441 1.440926,0.520485 2.940018,0.610588 4.493683,0.265877 0.853768,-0.189423 1.615975,-0.509873 2.290749,-0.954438 0.665405,-0.439872 1.228493,-0.930099 1.676582,-1.457443 0.335862,-0.387634 0.608574,-0.766472 0.815651,-1.135963 v 0 c 0.137375,0.572265 0.43248,1.010383 0.897721,1.311599 0.469932,0.310608 0.997482,0.399697 1.585693,0.269188 0.585724,-0.129951 1.026108,-0.433792 1.323082,-0.914558 0.293938,-0.482704 0.376907,-1.012528 0.246155,-1.601921 L 76.507722,73.760222 c -0.13517,-0.609284 -0.436615,-1.064255 -0.903786,-1.362435 -0.470764,-0.302604 -0.997208,-0.386711 -1.58294,-0.256759 z"
       fill-rule="evenodd"
       id="path96" />
    <path
       fill="#fbfbff"
       d="m 80.923706,70.964386 c -0.608063,0.134911 -1.050377,0.441795 -1.325836,0.90213 -0.269669,0.474709 -0.362023,0.915291 -0.271546,1.323143 0.05517,0.248688 0.135437,0.457886 0.22976,0.624825 0.09543,0.171913 0.177063,0.305145 0.249595,0.409072 l 9.382805,12.561539 c 0.304482,0.433434 0.68451,0.714417 1.124367,0.854264 0.343895,0.106354 0.678406,0.123459 1.003532,0.05132 0.0968,-0.02148 0.191933,-0.05041 0.287896,-0.08736 0.770759,-0.223198 1.25415,-0.779243 1.436096,-1.672844 L 96.265572,70.57161 c 0.03529,-0.169609 0.05431,-0.353866 0.07111,-0.548073 0.01791,-0.189231 0.0096,-0.367439 -0.02568,-0.526596 -0.114754,-0.517273 -0.384484,-0.911438 -0.812218,-1.184448 -0.424705,-0.271072 -0.922478,-0.343284 -1.483383,-0.218834 -0.03778,0.0058 -0.07749,0.01459 -0.114716,0.02284 -0.752014,0.166847 -1.217476,0.721527 -1.391426,1.662933 L 90.250661,81.466543 83.20686,71.806822 C 82.927754,71.417341 82.586614,71.159048 82.181218,71.021979 81.76949,70.891546 81.35307,70.869124 80.923703,70.964389 Z"
       fill-rule="evenodd"
       id="path98" />
    <path
       fill="#fbfbff"
       d="m 107.37566,68.651955 c 0.69989,-0.155281 1.39235,-0.144531 2.07957,0.01872 0.68889,0.170708 1.29615,0.466507 1.8309,0.893204 0.53226,0.427246 0.8908,0.963485 1.0825,1.604591 l 0.0524,0.236252 -8.85538,1.964737 c -0.008,-0.293129 10e-4,-0.569115 0.0303,-0.826027 0.0857,-0.775711 0.30077,-1.42617 0.63221,-1.951111 0.33392,-0.525497 0.77099,-0.938194 1.31892,-1.250236 0.54297,-0.310952 1.15103,-0.539795 1.82859,-0.690125 z m -0.82949,-3.727272 c -1.48914,0.330391 -2.81279,1.03112 -3.97316,2.092224 -1.16092,1.058624 -1.9931,2.401787 -2.49682,4.016495 -0.5051,1.620231 -0.530627,3.441955 -0.07988,5.473732 0.38619,1.740814 1.10936,3.216385 2.16646,4.424782 1.06318,1.212265 2.38996,2.06337 3.97181,2.54998 1.58792,0.490494 3.33712,0.522492 5.25563,0.09683 1.12677,-0.25 2.17935,-0.681839 3.16464,-1.299667 0.97949,-0.608711 1.705,-1.223694 2.18094,-1.848541 0.5195,-0.639725 0.70919,-1.26368 0.57457,-1.870476 -0.0999,-0.450127 -0.34945,-0.812233 -0.75264,-1.080254 -0.40458,-0.262489 -0.8516,-0.340736 -1.35046,-0.230056 -0.35491,0.07874 -0.72002,0.264122 -1.07988,0.555313 -0.21977,0.194885 -0.46078,0.423179 -0.71916,0.67881 -0.26472,0.26226 -0.62486,0.516983 -1.092,0.758918 -0.4641,0.243874 -1.11628,0.461632 -1.94771,0.646103 -0.90093,0.199891 -1.8038,0.167977 -2.70062,-0.09489 -0.89324,-0.258439 -1.69245,-0.762146 -2.38688,-1.497834 -0.40404,-0.424385 -0.73913,-0.937126 -0.99867,-1.531868 l 11.15361,-2.474647 c 0.53857,-0.119492 0.97758,-0.394325 1.30709,-0.822296 0.33255,-0.426041 0.44972,-0.919098 0.35233,-1.463707 -0.27033,-1.218567 -0.75907,-2.31823 -1.46427,-3.302018 -0.6997,-0.982414 -1.53837,-1.793083 -2.51133,-2.446106 -0.96937,-0.648597 -2.02422,-1.095581 -3.15268,-1.346191 -1.13178,-0.242042 -2.27181,-0.239601 -3.42092,0.01536 z"
       fill-rule="evenodd"
       id="path100" />
    <path
       fill="#fbfbff"
       d="m 119.41182,55.142532 c -0.58821,0.130508 -1.03852,0.43655 -1.34046,0.918419 -0.30634,0.485454 -0.39676,1.016933 -0.26656,1.603836 l 4.64482,20.937012 c 0.13075,0.589393 0.42806,1.03746 0.90295,1.346969 0.47242,0.310059 0.98508,0.402451 1.55095,0.276902 0.58821,-0.130509 1.03355,-0.435448 1.34045,-0.918419 0.30635,-0.485451 0.39429,-1.01638 0.26353,-1.605774 l -4.64481,-20.937012 c -0.1302,-0.586903 -0.4231,-1.038555 -0.88256,-1.348885 -0.45752,-0.313366 -0.98011,-0.403553 -1.56831,-0.273048 z"
       fill-rule="evenodd"
       id="path102" />
  </g>
</svg>
