<?xml version="1.0" encoding="UTF-8" standalone="no"?>
<svg
   version="1.1"
   viewBox="0 0 165 170"
   fill="none"
   stroke="none"
   stroke-linecap="square"
   stroke-miterlimit="10"
   id="svg169"
   sodipodi:docname="img_bottom.svg"
   width="165"
   height="170"
   inkscape:version="1.2.1 (9c6d41e410, 2022-07-14)"
   xmlns:inkscape="http://www.inkscape.org/namespaces/inkscape"
   xmlns:sodipodi="http://sodipodi.sourceforge.net/DTD/sodipodi-0.dtd"
   xmlns:xlink="http://www.w3.org/1999/xlink"
   xmlns="http://www.w3.org/2000/svg"
   xmlns:svg="http://www.w3.org/2000/svg">
  <defs
     id="defs173" />
  <sodipodi:namedview
     id="namedview171"
     pagecolor="#505050"
     bordercolor="#eeeeee"
     borderopacity="1"
     inkscape:showpageshadow="0"
     inkscape:pageopacity="0"
     inkscape:pagecheckerboard="0"
     inkscape:deskcolor="#505050"
     showgrid="false"
     inkscape:zoom="4.263592"
     inkscape:cx="81.73859"
     inkscape:cy="89.947631"
     inkscape:window-width="1920"
     inkscape:window-height="1001"
     inkscape:window-x="-9"
     inkscape:window-y="-9"
     inkscape:window-maximized="1"
     inkscape:current-layer="svg169" />
  <clipPath
     id="g2cd3b45430e_0_140.0">
    <path
       d="M 0,0 H 960 V 540 H 0 Z"
       clip-rule="nonzero"
       id="path2" />
  </clipPath>
  <g
     clip-path="url(#g2cd3b45430e_0_140.0)"
     id="g167"
     transform="translate(-13.134465,-13.603553)">
    <path
       fill="#000000"
       fill-opacity="0"
       d="M 0,0 H 960 V 540 H 0 Z"
       fill-rule="evenodd"
       id="path5" />
    <g
       filter="url(#shadowFilter-g2cd3b45430e_0_140.1)"
       id="g9">
      <use
         xlink:href="#g2cd3b45430e_0_140.1"
         transform="translate(0,2)"
         id="use7" />
    </g>
    <defs
       id="defs24">
      <filter
         id="shadowFilter-g2cd3b45430e_0_140.1"
         filterUnits="userSpaceOnUse">
        <feGaussianBlur
           in="SourceAlpha"
           stdDeviation="2.0"
           result="blur"
           id="feGaussianBlur11" />
        <feComponentTransfer
           in="blur"
           color-interpolation-filters="sRGB"
           id="feComponentTransfer21">
          <feFuncR
             type="linear"
             slope="0"
             intercept="0.37254903"
             id="feFuncR13" />
          <feFuncG
             type="linear"
             slope="0"
             intercept="0.37254903"
             id="feFuncG15" />
          <feFuncB
             type="linear"
             slope="0"
             intercept="0.9647059"
             id="feFuncB17" />
          <feFuncA
             type="linear"
             slope="0.498"
             intercept="0"
             id="feFuncA19" />
        </feComponentTransfer>
      </filter>
    </defs>
    <g
       id="g2cd3b45430e_0_140.1">
      <path
         fill="#ffffff"
         d="m 17.05452,78.93661 v 0 C 26.473494,35.341384 69.449997,7.63606 113.04522,17.055033 v 0 c 20.93517,4.523151 39.21607,17.177507 50.82111,35.179253 11.60506,18.001747 15.58362,39.87628 11.06047,60.811444 v 0 c -9.41897,43.59523 -52.39547,71.30055 -95.990695,61.88158 v 0 C 35.340875,165.50833 7.635545,122.53184 17.054521,78.93661 Z"
         fill-rule="evenodd"
         id="path26" />
      <path
         stroke="#ffffff"
         stroke-width="3"
         stroke-linejoin="round"
         stroke-linecap="butt"
         d="m 17.05452,78.93661 v 0 C 26.473494,35.341384 69.449997,7.63606 113.04522,17.055033 v 0 c 20.93517,4.523151 39.21607,17.177507 50.82111,35.179253 11.60506,18.001747 15.58362,39.87628 11.06047,60.811444 v 0 c -9.41897,43.59523 -52.39547,71.30055 -95.990695,61.88158 v 0 C 35.340875,165.50833 7.635545,122.53184 17.054521,78.93661 Z"
         fill-rule="evenodd"
         id="path28" />
    </g>
    <defs
       id="defs36">
      <linearGradient
         id="g2cd3b45430e_0_140.2"
         gradientUnits="userSpaceOnUse"
         gradientTransform="matrix(12.106865,2.6157506,-2.6157506,12.106865,0,0)"
         spreadMethod="pad"
         x1="3.1572938"
         y1="-0.11525393"
         x2="3.1572499"
         y2="11.991611">
        <stop
           offset="0.0"
           stop-color="#adadfd"
           id="stop31" />
        <stop
           offset="1.0"
           stop-color="#5f5ff6"
           id="stop33" />
      </linearGradient>
    </defs>
    <path
       fill="url(#g2cd3b45430e_0_140.2)"
       d="m 169.2883,111.82455 c -4.20047,19.44161 -15.9512,36.41225 -32.66556,47.1859 -16.7149,10.77616 -37.026503,14.46566 -56.468016,10.26522 C 60.71571,165.07576 43.741494,153.33048 32.966316,136.61495 22.188101,119.90139 18.491615,99.593296 22.692075,80.151684 26.891458,60.715065 38.642204,43.744434 55.35906,32.971321 72.073953,22.195166 92.384134,18.50013 111.82315,22.700029 c 19.44152,4.200439 36.41715,15.951269 47.19232,32.666794 10.77573,16.713028 14.47222,37.02111 10.27283,56.457727 z"
       fill-rule="evenodd"
       id="path38"
       style="fill:url(#g2cd3b45430e_0_140.2)" />
    <path
       fill="#fbfbff"
       d="m 160.79672,111.53067 c -0.15747,-0.034 -0.31799,-0.0661 -0.47546,-0.10011 -30.35625,-6.18717 -42.42342,27.68711 -72.185584,21.25685 -0.549904,-0.11882 -1.107101,-0.25227 -1.672142,-0.3979 C 62.104731,125.92798 59.350257,102.15592 36.681819,97.258285 32.300105,96.311592 27.17476,96.070099 21.003331,96.795448 c 0.02221,2.537003 0.180731,5.048512 0.458414,7.541302 0.620121,5.56984 1.868256,11.00592 3.676161,16.21241 0.313202,0.89953 0.6441,1.78981 0.989117,2.67528 0.188493,0.4959 0.389145,0.98395 0.591756,1.47505 0.186255,0.4457 0.373051,0.88891 0.567885,1.33124 1.218073,2.79013 2.610958,5.49771 4.156698,8.11536 0.01318,0.0238 0.02689,0.0451 0.04061,0.0663 1.806843,3.05598 3.839832,5.98556 6.06633,8.75814 0.08162,0.10659 0.162907,0.20263 0.247029,0.30974 0.286422,0.35749 0.577499,0.70551 0.873039,1.0571 -0.0011,0.005 0.0039,0.006 0.0059,0.009 1.197495,1.42018 2.441323,2.79545 3.74506,4.12349 1.406235,1.44697 2.875084,2.83424 4.406544,4.16177 0.29248,0.25677 0.594963,0.5157 0.898521,0.76964 0.498684,0.41641 0.997906,0.83033 1.506787,1.23588 0.650154,0.51454 1.303886,1.02463 1.968895,1.51883 0.591167,0.4364 1.190372,0.87194 1.792816,1.29247 1.647484,1.15379 3.342579,2.24463 5.094406,3.26663 l 45.711801,9.87628 c 0.9389,-0.0954 1.87463,-0.21234 2.80859,-0.34538 0.54594,-0.0809 1.09189,-0.16171 1.63554,-0.25615 0.29567,-0.0486 0.58884,-0.0977 0.88863,-0.15331 0.17347,-0.0279 0.34606,-0.0639 0.52007,-0.0943 0.64085,-0.12051 1.28332,-0.24853 1.91688,-0.3837 0.48204,-0.0999 0.96124,-0.21087 1.44044,-0.32184 0.79634,-0.18632 1.58789,-0.38676 2.37161,-0.59936 0.64914,-0.17104 1.29242,-0.3512 1.93644,-0.54689 0.46102,-0.13583 0.91758,-0.27524 1.37523,-0.41963 0.50054,-0.1613 1.01019,-0.32848 1.51343,-0.50226 0.76289,-0.26157 1.51795,-0.53529 2.27017,-0.8201 0.009,-0.003 0.0246,-0.005 0.0363,-0.0105 6.4381,-2.44394 12.50631,-5.75517 18.02802,-9.83062 5.90422,-4.35642 11.1853,-9.58252 15.62604,-15.54477 2.65533,-3.55944 5.00319,-7.37888 7.01352,-11.42821 0.20285,-0.40611 0.40179,-0.8183 0.59573,-1.23157 0.27476,-0.58153 0.54616,-1.17164 0.80504,-1.76445 0.21925,-0.49412 0.4321,-0.99486 0.63994,-1.49668 0.46084,-1.10374 0.89135,-2.22451 1.30046,-3.35514 0.14679,-0.41299 0.29912,-0.8274 0.43698,-1.24754 0.13928,-0.41462 0.27553,-0.82727 0.41035,-1.24546 0.53197,-1.65081 1.00663,-3.32707 1.4265,-5.02825 -2.49003,-0.99577 -5.16325,-1.82184 -8.00024,-2.43479 z"
       fill-rule="evenodd"
       id="path40" />
    <path
       fill="#8686f9"
       d="m 166.52313,121.48671 c -12.53595,34.8089 -49.20919,55.82524 -86.370026,47.79645 -32.309208,-6.98056 -55.229362,-33.81728 -58.707436,-64.94465 35.90548,-3.0409 34.812614,28.25774 63.32875,35.70844 30.992462,8.09822 42.937452,-27.16012 73.854152,-20.85448 2.80455,0.56932 5.43588,1.3471 7.89456,2.29424 z"
       fill-rule="evenodd"
       id="path42" />
    <path
       fill="#0e1a3f"
       d="m 111.83153,22.709682 c -0.002,-5.4e-4 -0.008,-0.0016 -0.01,-0.0022 -23.750742,-5.131472 -47.308182,1.605343 -64.487422,16.22596 4.522583,6.337124 11.428684,12.964249 21.84584,17.302425 2.311493,0.962425 4.528435,1.648064 6.668045,2.110336 18.87912,4.078934 31.658787,-9.347191 50.145477,-5.353046 2.58203,0.557861 5.27425,1.453434 8.11272,2.786075 19.30803,9.068581 19.79532,25.86074 36.64962,34.213448 -2.56553,-32.11784 -25.81022,-60.128574 -58.92428,-67.283035 z"
       fill-rule="evenodd"
       id="path44" />
    <defs
       id="defs51">
      <linearGradient
         id="g2cd3b45430e_0_140.3"
         gradientUnits="userSpaceOnUse"
         gradientTransform="matrix(7.6920314,1.6619031,-1.6619031,7.6920314,0,0)"
         spreadMethod="pad"
         x1="7.9913826"
         y1="15.825879"
         x2="7.9914675"
         y2="8.1338472">
        <stop
           offset="0.0"
           stop-color="#adadfd"
           id="stop46" />
        <stop
           offset="1.0"
           stop-color="#5f5ff6"
           id="stop48" />
      </linearGradient>
    </defs>
    <path
       fill="url(#g2cd3b45430e_0_140.3)"
       d="m 31.455404,134.21147 c -1.545742,-2.61765 -2.938625,-5.32523 -4.156698,-8.11536 -0.194836,-0.44233 -0.379131,-0.885 -0.567886,-1.33124 -0.20261,-0.4911 -0.400763,-0.97862 -0.591757,-1.47505 -0.342516,-0.88493 -0.675915,-1.77575 -0.986616,-2.67473 -1.810404,-5.20703 -3.05604,-10.64258 -3.67866,-16.21295 -0.01779,-0.14772 -0.03755,-0.29848 -0.04568,-0.45458 -0.0028,-0.0111 -0.0041,-0.0296 -0.0064,-0.0432 -0.01157,-0.12806 -0.02315,-0.25613 -0.03972,-0.38527 -0.0024,-0.0371 -0.0079,-0.0723 -0.01286,-0.11003 -0.01495,-0.13665 -0.02491,-0.27221 -0.03878,-0.41385 -0.01333,-0.14414 -0.02809,-0.29381 -0.03696,-0.43438 -0.0089,-0.14055 -0.02133,-0.27666 -0.0377,-0.41884 -0.0035,-0.0688 -0.01,-0.13556 -0.01287,-0.20682 -0.0081,-0.0959 -0.01503,-0.19682 -0.02255,-0.29523 -0.0016,-0.0291 -0.0062,-0.0563 -0.0066,-0.0904 -0.0091,-0.12753 -0.01761,-0.25755 -0.0331,-0.39169 -0.01341,-0.20433 -0.02486,-0.40561 -0.03578,-0.6094 -0.0073,-0.11144 -0.01071,-0.21681 -0.01803,-0.32826 -0.0096,-0.12502 -0.01565,-0.254507 -0.01831,-0.37541 l -0.0098,-0.208786 c -0.0069,-0.137519 -0.01383,-0.275039 -0.01683,-0.406486 -0.0034,-0.0086 -1.39e-4,-0.02357 -0.003,-0.03465 -0.0048,-0.147522 -0.01505,-0.293617 -0.01981,-0.441139 -0.0062,-0.153054 -0.0077,-0.315567 -0.01386,-0.468628 -0.01009,-0.159134 -0.01215,-0.319145 -0.01474,-0.476662 -0.0021,-0.160019 -0.0072,-0.318069 -0.0097,-0.475586 -0.0021,-0.160011 -0.0047,-0.317528 -0.0047,-0.474502 0.0012,-0.175011 -0.0042,-0.343606 -0.0031,-0.518616 -0.0015,-0.162514 8.89e-4,-0.318947 -0.0012,-0.478966 0.0013,-0.01803 -4.79e-4,-0.0341 0.0033,-0.0516 -8.35e-4,-0.141441 0.0019,-0.287338 0.0016,-0.431282 -7.8e-5,-0.06018 0.0023,-0.119827 0.0053,-0.181968 -0.0023,-0.110367 -0.0038,-0.2127 8.89e-4,-0.318947 0.0042,-0.04356 0.0048,-0.08267 0.0048,-0.119286 7.84e-4,-0.148933 0.0071,-0.299293 0.01093,-0.450187 0.0025,-0.132866 0.0037,-0.271263 0.0098,-0.408585 l 0.01265,-0.300713 c -8.37e-4,-0.141441 0.0094,-0.28572 0.01303,-0.423576 0.0022,-0.143402 0.01245,-0.287681 0.02269,-0.431953 -0.0016,-0.02911 -7.8e-5,-0.06019 0.0028,-0.08572 l 0.01501,-0.323745 c 0.0019,-0.09376 0.0105,-0.193924 0.01548,-0.289643 0.0027,-0.01249 0.0018,-0.02053 0.0051,-0.03552 0.0068,-0.116249 0.01414,-0.234993 0.02149,-0.353745 0.01442,-0.187843 0.02135,-0.377304 0.03219,-0.560691 0.01268,-0.107132 0.01786,-0.215882 0.02696,-0.318551 0.0034,-0.08821 0.01206,-0.16481 0.01792,-0.252487 0.02116,-0.267479 0.04179,-0.532463 0.06295,-0.799942 0.0023,-0.08322 0.01618,-0.171768 0.02204,-0.259445 0.01012,-0.07106 0.01166,-0.13874 0.02178,-0.209801 0.0057,-0.07464 0.01328,-0.146232 0.01894,-0.220871 0.01166,-0.13874 0.02636,-0.279441 0.03803,-0.418182 0.03796,-0.381569 0.07985,-0.757057 0.126389,-1.142006 0.01214,-0.104622 0.0209,-0.217834 0.03912,-0.326378 0.0174,-0.153198 0.03372,-0.301391 0.05504,-0.448509 0.01646,-0.124626 0.03042,-0.249786 0.04776,-0.366371 0.01646,-0.124626 0.02934,-0.244789 0.0458,-0.369415 0.0027,-0.01249 0.0059,-0.02749 0.0061,-0.04053 l 0.04864,-0.35833 c 0.0139,-0.08855 0.02226,-0.175689 0.03866,-0.263702 0.0085,-0.06356 0.02058,-0.131584 0.0282,-0.203178 0.01356,-0.09909 0.03158,-0.194603 0.05014,-0.292618 0.01504,-0.130158 0.03954,-0.255661 0.05708,-0.385285 0.01856,-0.09801 0.03212,-0.197097 0.04622,-0.29869 0.0137,-0.07552 0.0249,-0.151574 0.03914,-0.229592 l 0.03522,-0.235664 c 0.0245,-0.125504 0.04258,-0.257629 0.06458,-0.383667 l 0.06958,-0.382584 0.066,-0.378128 0.07208,-0.382049 v 0 c 0.0168,-0.114083 0.0411,-0.226548 0.06344,-0.342057 l 0.0189,-0.08747 c 0.0189,-0.08747 0.03334,-0.178527 0.05224,-0.265998 0.01188,-0.05499 0.02376,-0.109971 0.0326,-0.162995 0.02106,-0.09746 0.033,-0.189064 0.05244,-0.279037 0.0243,-0.112465 0.04752,-0.219933 0.06824,-0.327942 l 0.0945,-0.437363 c 0.687928,-3.184036 1.570559,-6.276306 2.624117,-9.263626 8.097513,2.372093 16.610765,20.317574 14.071425,43.126375 -1.078697,9.71524 -4.350163,16.02952 -7.955668,20.12396 z"
       fill-rule="evenodd"
       id="path53"
       style="fill:url(#g2cd3b45430e_0_140.3)" />
    <path
       fill="#fbfbff"
       d="m 27.617281,83.886635 c -0.95483,-0.206291 0.739164,8.300407 0.871811,17.555375 0.0054,0.62898 0.0113,1.25546 0.0036,1.88424 -0.04,3.74518 -0.37938,7.51987 -1.285752,10.81889 -0.04888,0.17778 -0.09667,0.35057 -0.14501,0.52586 -0.152168,0.53477 -0.309335,1.06847 -0.472381,1.59305 -0.45916,1.48342 -0.953594,2.91213 -1.466683,4.28188 0.310702,0.89899 0.6416,1.78926 0.986617,2.67473 0.928798,-2.17981 1.743463,-4.57 2.329492,-7.16131 0.121773,-0.51518 0.230168,-1.04111 0.315188,-1.57993 0.02322,-0.10746 0.04252,-0.22101 0.06128,-0.33206 0.626606,-3.46934 0.986917,-6.94128 1.151899,-10.23568 0.03151,-0.58177 0.0514,-1.15821 0.06717,-1.72768 0.288212,-9.616595 -1.077202,-17.343394 -2.306284,-18.241993 -0.04067,-0.02972 -0.0785,-0.04835 -0.110998,-0.05537 z"
       fill-rule="evenodd"
       id="path55" />
    <path
       fill="#fbfbff"
       d="m 35.5089,94.598236 c -1.269772,-0.274345 -5.797398,8.209174 -5.797398,8.209174 0,0 -5.776479,-6.600181 -6.836288,-6.829162 -0.0275,-0.0059 -0.05053,-0.0083 -0.07215,-0.0051 -0.808184,0.107903 5.427986,7.801452 6.777744,8.093082 0.03749,0.008 0.06857,0.01 0.09768,0.008 1.11379,-0.11774 6.084255,-9.185719 6.084255,-9.185719 -0.05651,-0.174393 -0.141369,-0.265976 -0.253849,-0.290276 z"
       fill-rule="evenodd"
       id="path57" />
    <path
       fill="#fbfbff"
       d="m 35.09252,108.99779 c -1.337261,-0.28893 -7.574947,6.54333 -7.574947,6.54333 0,0 -4.129881,-8.1305 -4.989727,-8.31626 -0.005,-0.001 -0.01,-0.002 -0.015,-0.003 -0.831592,-0.0986 3.514076,9.29756 4.646374,9.5422 0.005,0.001 0.0075,0.002 0.0125,0.003 1.107422,0.16602 8.167904,-7.39881 8.167904,-7.39881 -0.01463,-0.22289 -0.102131,-0.33859 -0.247105,-0.36991 z"
       fill-rule="evenodd"
       id="path59" />
    <path
       fill="#fbfbff"
       d="m 32.11316,122.12161 c -0.924835,-0.19982 -3.390726,1.24765 -5.409372,2.57463 0.188755,0.44625 0.37305,0.88892 0.567884,1.33125 2.489992,-1.54691 5.21365,-3.44879 5.21365,-3.44879 -0.01599,-0.26504 -0.1497,-0.40903 -0.372162,-0.45709 z"
       fill-rule="evenodd"
       id="path61" />
    <path
       fill="#0e1a3f"
       d="m 72.57708,118.57974 c -8.808422,-1.90311 -24.517063,2.0118 -38.974297,13.79369 -0.74419,0.61091 -1.454262,1.22134 -2.130222,1.83129 1.811844,3.05707 3.842331,5.9861 6.06829,8.76119 0.08216,0.10408 0.167904,0.20369 0.250069,0.30777 0.286419,0.35748 0.57946,0.70854 0.869999,1.05907 -5.42e-4,0.002 0.0045,0.004 0.0084,0.01 1.194996,1.41964 2.441322,2.79545 3.743099,4.12045 1.408737,1.44752 2.877045,2.83728 4.409584,4.15982 0.291401,0.26176 0.589421,0.51712 0.894944,0.77408 0.496181,0.41589 1.000404,0.83088 1.509285,1.23643 2.09243,-2.7341 3.94495,-5.65344 5.42295,-8.58307 0.340481,-0.67981 0.72805,-1.3233 1.149876,-1.94369 7.565613,-11.12581 26.868149,-12.69992 23.332352,-21.07353 -0.940399,-2.22266 -3.267395,-3.74301 -6.554306,-4.45316 z"
       fill-rule="evenodd"
       id="path63" />
    <path
       fill="#fbfbff"
       d="m 65.06886,125.80717 c -1.6647,-0.35966 -8.734238,2.66984 -16.46342,7.98962 -0.464909,0.32331 -0.938934,0.65252 -1.412621,0.99228 -2.67583,1.92268 -5.401397,4.1119 -7.972835,6.52015 -0.08193,0.0765 -0.166359,0.15241 -0.246864,0.23441 -0.394444,0.37257 -0.776387,0.74783 -1.151371,1.12721 l -0.280899,0.29507 c 0.08216,0.10409 0.167904,0.20369 0.250068,0.30777 0.286419,0.35749 0.57946,0.70855 0.869999,1.05907 0.35059,-0.42389 0.710098,-0.84062 1.077107,-1.25574 0.120422,-0.13354 0.238888,-0.27014 0.359848,-0.40618 2.278236,-2.55271 5.268379,-4.8888 8.395237,-6.94947 0.519958,-0.34807 1.048836,-0.68896 1.581093,-1.02128 8.126369,-5.08747 16.491669,-8.3262 15.109978,-8.85753 -0.03587,-0.0156 -0.07282,-0.0262 -0.115319,-0.0354 z"
       fill-rule="evenodd"
       id="path65" />
    <path
       fill="#fbfbff"
       d="m 51.888153,125.02074 c -0.06749,-0.0146 -0.149834,-0.009 -0.24704,0.0172 0,0 -4.921753,9.09682 -4.41547,10.09562 0.133869,0.26435 0.96928,0.53901 2.116573,0.78689 3.159432,0.68262 8.677506,1.15283 8.415703,0.59664 -0.123329,-0.2647 -1.326911,-0.60321 -2.839141,-0.92994 -2.794499,-0.60377 -6.641396,-1.16809 -6.641396,-1.16809 0,0 5.043015,-9.08892 3.610771,-9.39837 z"
       fill-rule="evenodd"
       id="path67" />
    <path
       fill="#fbfbff"
       d="m 40.01761,133.17342 c -0.08499,-0.0184 -0.186649,0.004 -0.308029,0.0695 0,0 -1.622616,6.43246 -1.887829,9.42793 -0.01948,0.22337 -0.02911,0.42534 -0.03083,0.60285 0.286419,0.35748 0.57946,0.70854 0.869999,1.05906 -5.42e-4,0.003 0.0045,0.004 0.0084,0.01 2.533073,0.25168 10.260166,-0.9171 9.799961,-1.48739 -0.04331,-0.0538 -0.147011,-0.0945 -0.299485,-0.12749 -1.314762,-0.28406 -6.29887,0.14064 -8.429588,0.33949 -0.599315,0.0615 -0.976051,0.0978 -0.976051,0.0978 0,0 0.200226,-0.7572 0.458351,-1.85505 0.668061,-2.8378 1.737454,-7.93274 0.795124,-8.13634 z"
       fill-rule="evenodd"
       id="path69" />
    <defs
       id="defs76">
      <linearGradient
         id="g2cd3b45430e_0_140.4"
         gradientUnits="userSpaceOnUse"
         gradientTransform="matrix(7.10068,1.5341386,-1.5341386,7.10068,0,0)"
         spreadMethod="pad"
         x1="21.260248"
         y1="20.226826"
         x2="21.260324"
         y2="13.126144">
        <stop
           offset="0.0"
           stop-color="#adadfd"
           id="stop71" />
        <stop
           offset="1.0"
           stop-color="#5f5ff6"
           id="stop73" />
      </linearGradient>
    </defs>
    <path
       fill="url(#g2cd3b45430e_0_140.4)"
       d="m 122.14497,165.95894 v 0 c 0.07,-1.52303 0.0552,-3.13762 -0.0714,-4.85225 v 0 c -0.12934,-1.7989 -0.38334,-3.71107 -0.76809,-5.73259 -0.59191,-3.09694 -1.3543,-6.03453 -2.25054,-8.81268 -6.40513,-19.8077 -19.686504,-31.14752 -26.625096,-27.59794 -8.45211,4.31865 6.954994,18.98217 4.05928,32.92976 -0.03078,0.14245 -0.06264,0.2899 -0.101456,0.43324 -0.779777,3.31853 -1.241195,6.90727 -1.376465,10.48799 -0.100837,2.74322 -0.01807,5.48428 0.267273,8.09904 0.133416,7e-5 0.272911,-0.004 0.407746,0.002 0.08626,3.4e-4 0.177528,0.002 0.264877,-0.003 0.256294,4.5e-4 0.513672,-0.004 0.771042,-0.009 0.05519,-0.001 0.109848,2e-4 0.161995,9.9e-4 0.117882,-6.8e-4 0.241302,-0.003 0.363296,-0.0104 0.168076,-0.003 0.341141,-0.005 0.512253,-0.01 0.06377,-0.005 0.12896,-0.004 0.190224,-0.009 0.134498,-0.005 0.268455,-0.007 0.400993,-0.0154 0.01608,-0.002 0.02858,9.3e-4 0.03661,6e-5 0.14254,-0.006 0.280075,-0.0127 0.422607,-0.0186 l 0.110924,-0.005 c 0.321144,-0.009 0.63945,-0.0293 0.957214,-0.0469 0.07985,-0.006 0.169153,-0.008 0.253463,-0.0106 0.16969,-0.0104 0.33492,-0.0244 0.50461,-0.0348 0.0843,-0.003 0.17523,-0.0118 0.25454,-0.0156 0.17327,-0.0149 0.33742,-0.0239 0.50765,-0.0368 0.17077,-0.0154 0.34046,-0.0258 0.50819,-0.0393 0.16577,-0.0165 0.33601,-0.0294 0.50482,-0.0479 0.33904,-0.0314 0.67254,-0.0614 1.00766,-0.0988 0.11505,-0.0118 0.23812,-0.0244 0.35317,-0.0362 0.23669,-0.03 0.46731,-0.056 0.70794,-0.0799 0.0784,-0.0118 0.15827,-0.0181 0.23365,-0.028 l 0.16828,-0.016 c 0.11253,-0.0123 0.2242,-0.0327 0.33728,-0.0475 0.11254,-0.0123 0.22616,-0.0296 0.33674,-0.045 0.2267,-0.0321 0.45037,-0.0623 0.67761,-0.0969 0.54486,-0.0759 1.08993,-0.16475 1.62946,-0.25221 0.29817,-0.0481 0.59634,-0.0961 0.89113,-0.15277 0.17705,-0.0324 0.35052,-0.0603 0.52311,-0.0963 0.6414,-0.12301 1.28029,-0.24656 1.91688,-0.38369 0.479,-0.0979 0.95766,-0.20641 1.43794,-0.32238 v 0 c 0.79385,-0.18687 1.58486,-0.38481 2.37357,-0.59632 0.64718,-0.17409 1.29404,-0.35871 1.93393,-0.54744 0.46353,-0.13529 0.91563,-0.27826 1.37274,-0.42017 0.50912,-0.16467 1.01519,-0.32739 1.51843,-0.50118 0.75736,-0.26014 1.51741,-0.53279 2.27071,-0.82258 0.008,-8.9e-4 0.0227,-0.008 0.0307,-0.009 0.007,-0.0325 0.0105,-0.0605 0.0125,-0.0941 z"
       fill-rule="evenodd"
       id="path78"
       style="fill:url(#g2cd3b45430e_0_140.4)" />
    <path
       fill="#fbfbff"
       d="m 101.62397,130.137 c -1.23228,-0.26625 3.02143,7.50908 5.94018,16.5106 0.19655,0.5918 0.3804,1.19394 0.55871,1.79751 1.07136,3.5903 1.8605,7.30012 1.96447,10.71803 0.007,0.18468 0.009,0.36825 0.0162,0.54239 0.01,0.55934 0.018,1.11564 0.014,1.66675 8.4e-4,0.89219 -0.0162,1.77009 -0.0485,2.6342 -0.0669,2.00502 -0.21978,3.92346 -0.41516,5.73593 0.64085,-0.12052 1.28332,-0.24854 1.91687,-0.3837 0.35384,-2.69119 0.49125,-5.62794 0.2571,-8.73392 -0.0326,-0.45436 -0.0792,-0.91697 -0.1288,-1.37762 -0.005,-0.0743 -0.0148,-0.14969 -0.0246,-0.22507 -0.0129,-0.11003 -0.0277,-0.2231 -0.04,-0.33562 -0.4273,-3.49562 -1.10796,-6.92041 -1.92403,-10.1181 -0.14534,-0.56244 -0.28873,-1.12182 -0.44534,-1.66838 -2.56449,-9.27289 -6.1503,-16.25255 -7.59169,-16.74971 -0.017,-0.006 -0.0344,-0.0101 -0.0494,-0.0133 z"
       fill-rule="evenodd"
       id="path80" />
    <path
       fill="#fbfbff"
       d="m 112.32238,138.04124 c -1.29726,-0.28027 -3.19523,9.5457 -3.19523,9.5457 0,0 -6.71272,-4.13162 -8.32743,-4.48048 -0.12998,-0.0281 -0.22874,-0.0311 -0.28629,-0.007 -0.700671,0.32472 6.64436,5.28355 8.59151,5.70424 0.16248,0.0351 0.28731,0.0385 0.3681,0.004 1.02591,-0.43756 3.10209,-10.56771 3.10209,-10.56771 -0.08,-0.11408 -0.16526,-0.17958 -0.25275,-0.19849 z"
       fill-rule="evenodd"
       id="path82" />
    <path
       fill="#fbfbff"
       d="m 116.18282,151.92346 c -1.26728,-0.2738 -5.39386,8.48471 -5.39386,8.48471 0,0 -6.03197,-6.22899 -7.15177,-6.47093 -0.035,-0.008 -0.0636,-0.008 -0.0877,-0.006 -0.79825,0.14667 5.73062,7.42998 7.14787,7.73619 0.045,0.01 0.0866,0.0109 0.1218,0.005 1.10547,-0.16402 5.62072,-9.47422 5.62072,-9.47422 -0.0617,-0.16244 -0.14961,-0.25206 -0.25708,-0.27528 z"
       fill-rule="evenodd"
       id="path84" />
    <path
       fill="#fbfbff"
       d="m 103.34188,165.77844 c -0.035,-0.008 -0.0661,-0.009 -0.0907,-0.004 -0.44415,0.0819 1.39627,2.38916 3.35763,4.46357 0.54487,-0.0759 1.08831,-0.15726 1.62947,-0.25223 -1.83161,-1.80309 -4.2315,-4.06378 -4.89638,-4.20743 z"
       fill-rule="evenodd"
       id="path86" />
    <path
       fill="#fbfbff"
       d="m 117.28565,165.34592 c -0.18246,-0.0394 -0.41727,0.0302 -0.69096,0.18292 -0.95105,0.52698 -2.35777,2.04895 -3.58454,3.51302 0.79635,-0.18633 1.58736,-0.38426 2.37107,-0.59686 0.59346,-0.72457 1.1293,-1.38834 1.52413,-1.88376 0.43581,-0.55197 0.70948,-0.8983 0.70948,-0.8983 -0.0729,-0.18319 -0.18421,-0.28571 -0.32918,-0.31702 z"
       fill-rule="evenodd"
       id="path88" />
    <defs
       id="defs95">
      <linearGradient
         id="g2cd3b45430e_0_140.5"
         gradientUnits="userSpaceOnUse"
         gradientTransform="matrix(6.0540656,1.3080121,-1.3080121,6.0540656,0,0)"
         spreadMethod="pad"
         x1="24.054281"
         y1="10.835628"
         x2="24.05426"
         y2="16.889692">
        <stop
           offset="0.0"
           stop-color="#fff4b8"
           id="stop90" />
        <stop
           offset="1.0"
           stop-color="#ffee97"
           id="stop92" />
      </linearGradient>
    </defs>
    <path
       fill="url(#g2cd3b45430e_0_140.5)"
       d="m 130.62668,102.49577 c -4.81192,7.59547 13.52945,12.29852 19.381,24.23045 0.39106,0.79341 0.72635,1.62708 0.99496,2.4908 0.91208,2.92284 2.15592,5.89643 3.63071,8.75772 0.48656,0.94484 0.99991,1.87453 1.53706,2.79105 2.65479,-3.55693 5.00569,-7.37834 7.01297,-11.42571 0.2009,-0.40915 0.39983,-0.82133 0.59877,-1.23352 0.27477,-0.58153 0.54312,-1.16968 0.802,-1.76249 0.21981,-0.49662 0.4346,-0.99432 0.64493,-1.4956 0.45532,-1.10233 0.88834,-2.22256 1.29547,-3.35623 0.1493,-0.41244 0.2927,-0.83401 0.43752,-1.25004 0.14072,-0.40907 0.28,-0.82369 0.41232,-1.24241 v 0 c 0.0338,-0.10781 0.067,-0.21312 0.0991,-0.31342 0.0117,-0.0419 0.0273,-0.0778 0.0415,-0.11923 0.0819,-0.27006 0.16628,-0.53957 0.24567,-0.81017 0.0302,-0.10335 0.0634,-0.20866 0.0936,-0.312 0.0634,-0.20865 0.12375,-0.41536 0.18159,-0.62259 0.0302,-0.10334 0.0565,-0.21277 0.0916,-0.31504 0.023,-0.0944 0.0525,-0.18225 0.0785,-0.27864 0.0611,-0.22223 0.12523,-0.44642 0.18132,-0.66973 0.0209,-0.0844 0.0446,-0.15779 0.0654,-0.24222 0.0624,-0.24028 0.12476,-0.48054 0.18572,-0.72635 0.0302,-0.10334 0.0543,-0.20277 0.082,-0.30666 0.0257,-0.10692 0.0559,-0.21027 0.0791,-0.31774 0.009,-0.0425 0.0198,-0.0794 0.0279,-0.11693 v 0 C 152.92316,99.088626 134.91014,95.735698 130.62668,102.49577 Z"
       fill-rule="evenodd"
       id="path97"
       style="fill:url(#g2cd3b45430e_0_140.5)" />
    <path
       fill="#fbfbff"
       d="m 144.47214,107.57988 c -0.22746,-0.0491 -0.41336,-0.0605 -0.55327,-0.0306 -1.44449,0.29218 6.27768,4.86164 13.46341,11.21173 0.46564,0.41189 0.93359,0.83737 1.39208,1.25818 2.13279,1.98326 4.15605,4.11028 5.80946,6.31433 0.2198,-0.49662 0.43263,-0.99736 0.64242,-1.49614 -1.6306,-1.95846 -3.32515,-3.80257 -5.02333,-5.50881 -0.41099,-0.41056 -0.82557,-0.81666 -1.23069,-1.21809 -6.27303,-6.04565 -12.31048,-10.05753 -14.50008,-10.53061 z"
       fill-rule="evenodd"
       id="path99" />
    <path
       fill="#fbfbff"
       d="m 157.27756,108.92874 c -1.72469,-0.37263 1.92162,9.85075 1.92162,9.85075 0,0 -9.22673,-0.17281 -9.70279,0.51696 -0.0842,0.12307 0.18284,0.24354 0.68025,0.35101 2.27959,0.49252 9.38795,0.74652 9.93696,0.01 0.66787,-0.89945 -2.69984,-10.68071 -2.69984,-10.68071 -0.0498,-0.0238 -0.0937,-0.0386 -0.1362,-0.0477 z"
       fill-rule="evenodd"
       id="path101" />
    <path
       fill="#fbfbff"
       d="m 161.17233,127.49562 c -1.76718,-0.38181 -3.30115,-0.63214 -3.55476,-0.41488 -0.35238,0.31102 2.68966,1.45222 5.55688,2.25219 0.20786,-0.40503 0.4068,-0.81721 0.60074,-1.23048 -0.84195,-0.20807 -1.7505,-0.42268 -2.60286,-0.60683 z"
       fill-rule="evenodd"
       id="path103" />
    <path
       fill="#fbfbff"
       d="m 167.37047,118.99371 c -0.19783,0.17699 -0.32359,0.62592 -0.41035,1.24545 0.13928,-0.41461 0.27552,-0.82726 0.41035,-1.24545 z"
       fill-rule="evenodd"
       id="path105" />
    <path
       fill="#0e1a3f"
       d="m 152.87459,126.95848 c -0.87234,-0.18847 -1.83113,-0.26745 -2.86583,-0.23725 -7.98808,0.23344 -20.40498,6.99152 -30.58173,19.91012 -1.19702,1.52018 -2.36831,3.12704 -3.4958,4.82182 -0.28898,0.42935 -0.56135,0.85446 -0.82513,1.27617 -1.42475,2.27147 -2.54304,4.44433 -3.40843,6.51228 -0.35072,0.8241 -0.65605,1.63184 -0.92457,2.42661 -0.27351,0.7937 -0.50359,1.56799 -0.70436,2.32769 -0.54551,2.07689 -0.84024,4.02224 -0.94273,5.82862 0.17455,-0.0329 0.35356,-0.0623 0.52365,-0.0988 0.63835,-0.12106 1.28029,-0.24656 1.91438,-0.38424 0.48454,-0.0994 0.96212,-0.20282 1.44186,-0.3163 0.79439,-0.18936 1.58289,-0.38784 2.3716,-0.59935 0.64774,-0.17659 1.29405,-0.35871 1.93644,-0.54691 0.45853,-0.13635 0.91617,-0.28076 1.37328,-0.42267 0.50911,-0.16467 1.01269,-0.32792 1.51289,-0.49975 0.76289,-0.26157 1.51795,-0.5353 2.27017,-0.82009 0.0116,-0.005 0.0282,-0.01 0.0374,-0.0155 6.43952,-2.4384 12.50772,-5.74965 18.02944,-9.82509 2.29641,-7.78319 9.7489,-13.50543 14.09005,-18.34082 2.90035,-3.21612 4.40412,-6.05909 2.0521,-8.85618 -0.91425,-1.08432 -2.21241,-1.79642 -3.80463,-2.14043 z"
       fill-rule="evenodd"
       id="path107" />
    <path
       fill="#fbfbff"
       d="m 144.24956,135.90393 c -0.02,-0.004 -0.0405,-0.006 -0.0611,-0.008 -1.51812,-0.10565 -7.53118,4.93616 -13.49502,12.48681 -0.35098,0.44996 -0.70555,0.90438 -1.05229,1.37097 -1.99598,2.62675 -3.95295,5.5209 -5.70228,8.58026 -0.0577,0.0974 -0.10839,0.19893 -0.16606,0.29634 -0.27459,0.47169 -0.52614,0.94577 -0.76911,1.41646 -0.19246,0.38218 -0.37633,0.761 -0.55913,1.13482 -0.92736,1.95516 -1.66198,3.90224 -2.23612,5.7846 0.7629,-0.26157 1.51796,-0.5353 2.27072,-0.82259 0.012,-0.0314 0.0232,-0.0709 0.0387,-0.10674 0.52083,-1.51455 1.10746,-3.06723 1.77216,-4.64227 0.21392,-0.50574 0.43391,-1.01539 0.65999,-1.52896 0.0767,-0.16132 0.14646,-0.32674 0.22675,-0.49251 1.42312,-3.11151 3.59155,-6.22157 5.96788,-9.11931 0.40267,-0.48326 0.80782,-0.966 1.21332,-1.43818 6.1723,-7.14722 13.0863,-12.65358 11.89151,-12.91173 z"
       fill-rule="evenodd"
       id="path109" />
    <path
       fill="#fbfbff"
       d="m 131.31862,139.03517 c -0.09,-0.0194 -0.19522,0.008 -0.31627,0.0834 0,0 -2.01726,10.14812 -1.24168,10.95396 0.0538,0.0535 0.15451,0.0962 0.29449,0.12642 1.86215,0.40233 10.70148,-1.33708 10.17716,-1.91339 -0.038,-0.0422 -0.11472,-0.0745 -0.22719,-0.0988 -1.53473,-0.33159 -9.45232,0.89544 -9.45232,0.89544 0,0 2.06058,-9.7673 0.76581,-10.04704 z"
       fill-rule="evenodd"
       id="path111" />
    <path
       fill="#fbfbff"
       d="m 122.37354,150.3338 c -0.10998,-0.0238 -0.22454,0.0221 -0.34943,0.15208 0,0 0.55147,10.33165 1.50299,10.91654 0.0253,0.0159 0.0592,0.0285 0.0992,0.0371 1.37975,0.29811 10.28551,-3.90422 9.60773,-4.35149 -0.0209,-0.0124 -0.0448,-0.0227 -0.0748,-0.0292 -1.0848,-0.23438 -9.1098,3.18512 -9.1098,3.18512 0,0 -0.40616,-9.63582 -1.67594,-9.91016 z"
       fill-rule="evenodd"
       id="path113" />
    <path
       fill="#fbfbff"
       d="m 116.16055,162.28288 c -0.15247,-0.0329 -0.29919,0.0164 -0.43838,0.16426 0,0 0.36475,1.36321 0.87252,3.0817 0.0987,0.33001 0.20676,0.67773 0.31066,1.03239 0.13268,0.43936 0.27124,0.88785 0.41393,1.32938 0.46102,-0.13584 0.91759,-0.27524 1.37523,-0.41963 -0.72493,-2.3723 -1.70411,-5.00881 -2.53396,-5.1881 z"
       fill-rule="evenodd"
       id="path115" />
    <defs
       id="defs122">
      <linearGradient
         id="g2cd3b45430e_0_140.6"
         gradientUnits="userSpaceOnUse"
         gradientTransform="matrix(4.778965,1.0325201,-1.0325201,4.778965,0,0)"
         spreadMethod="pad"
         x1="14.890572"
         y1="25.397257"
         x2="14.890555"
         y2="30.176222">
        <stop
           offset="0.0"
           stop-color="#fff4b8"
           id="stop117" />
        <stop
           offset="1.0"
           stop-color="#ffee97"
           id="stop119" />
      </linearGradient>
    </defs>
    <path
       fill="url(#g2cd3b45430e_0_140.6)"
       d="m 99.8542,158.64732 c 0.27021,-2.24362 -0.816315,-4.55278 -2.996017,-6.68221 -6.399864,-6.24569 -22.253464,-10.94751 -41.06665,-7.8603 -0.02662,0.002 -0.05735,0.0112 -0.08342,0.0108 -5.494114,0.90831 -9.84964,2.46808 -13.300713,4.3462 1.407314,1.44199 2.881161,2.83033 4.407081,4.15929 0.298901,0.26338 0.597462,0.51623 0.899941,0.77516 0.496185,0.41588 1.000404,0.83089 1.506786,1.23589 0.649613,0.51704 1.303887,1.02462 1.971939,1.51687 0.590084,0.44141 1.185368,0.87085 1.789772,1.29442 l 0.284905,0.19496 c 0.111141,0.0789 0.227817,0.15648 0.338955,0.23543 0.08939,0.0585 0.177147,0.12459 0.269031,0.18369 0.120594,0.0836 0.244232,0.16525 0.372868,0.24797 l 0.237274,0.16113 c 0.445835,0.29776 0.89275,0.5905 1.344322,0.87379 l 0.302063,0.18822 c 0.08046,0.0514 0.160931,0.10278 0.244435,0.15221 0.05513,0.0355 0.108837,0.0654 0.161468,0.10029 l 0.240513,0.14614 c 0.02284,0.0154 0.04121,0.0272 0.06567,0.0351 0.08992,0.0561 0.172886,0.10798 0.26281,0.16403 l 0.346855,0.21097 0.289764,0.17247 c 0.01392,0.008 0.02337,0.0129 0.03175,0.0226 0.104919,0.0593 0.206798,0.12052 0.309219,0.17929 0.06959,0.0412 0.142754,0.0779 0.209301,0.12107 0.05817,0.0335 0.11438,0.064 0.172009,0.1 0.160049,0.0947 0.3251,0.19057 0.488727,0.28085 0.08154,0.0464 0.159169,0.0867 0.240174,0.13561 0.07763,0.0403 0.151672,0.0851 0.226799,0.12486 0.241253,0.1306 0.486427,0.26729 0.730182,0.39842 0.08154,0.0464 0.157212,0.0837 0.239296,0.12757 0.482506,0.2612 0.969136,0.51544 1.454346,0.76416 0.105461,0.0568 0.202541,0.10392 0.306583,0.15516 0.08458,0.0444 0.169709,0.0864 0.257332,0.12885 0.05621,0.0305 0.115997,0.0565 0.172207,0.0869 l 0.740242,0.36397 c 0.08316,0.0389 0.165787,0.0803 0.246994,0.11615 0.08208,0.0439 0.166329,0.0778 0.248955,0.11919 0.348533,0.16685 0.708145,0.33088 1.063301,0.49131 0.06175,0.029 0.122955,0.0606 0.187744,0.0877 0.164368,0.0747 0.334282,0.14807 0.503105,0.22641 l 0.236115,0.10594 c 0.02392,0.0104 0.04034,0.0192 0.05979,0.026 0.06871,0.0332 0.140457,0.0644 0.212738,0.0931 0.169915,0.0733 0.344818,0.14775 0.517228,0.22162 0.167411,0.0728 0.333938,0.13754 0.50135,0.21034 0.136536,0.0583 0.276108,0.11459 0.417641,0.17393 0.06675,0.0301 0.127075,0.0536 0.1949,0.0787 0.08871,0.0375 0.175987,0.0694 0.267197,0.10744 0.134575,0.0552 0.27523,0.10655 0.409805,0.16178 v 0 c 8.712379,-4.77252 20.602585,-1.57315 27.001373,-2.8301 2.491799,-0.48969 4.151901,-1.65871 4.463944,-4.2412 z"
       fill-rule="evenodd"
       id="path124"
       style="fill:url(#g2cd3b45430e_0_140.6)" />
    <path
       fill="#fbfbff"
       d="m 84.116936,153.26173 c -3.146935,-0.67992 -9.15049,-1.0222 -16.097519,-0.44873 -0.564461,0.0455 -1.138588,0.0993 -1.716827,0.16009 -3.28098,0.34011 -6.731617,0.88422 -10.161263,1.69446 l -0.330727,0.0777 c -0.52959,0.12626 -1.046344,0.26574 -1.558639,0.40879 -1.050327,0.29625 -2.069637,0.6306 -3.051319,0.99661 0.590626,0.4389 1.18787,0.8714 1.792274,1.29495 0.383,-0.15005 0.762417,-0.29567 1.154332,-0.43858 0.513977,-0.18717 1.039032,-0.37717 1.569965,-0.55806 l 0.514313,-0.17662 c 3.242748,-1.08344 6.999672,-1.61632 10.73753,-1.85509 0.62857,-0.0395 1.255523,-0.0714 1.878357,-0.0964 9.57663,-0.36895 18.450813,0.97549 17.517906,-0.1678 -0.264862,-0.32406 -1.051102,-0.63256 -2.248383,-0.89124 z"
       fill-rule="evenodd"
       id="path126" />
    <path
       fill="#fbfbff"
       d="m 75.008156,146.7185 c 0,0 -8.798523,5.44974 -8.848251,6.56384 -0.05115,1.01177 6.960007,6.22022 8.247276,6.49834 0.124977,0.027 0.194489,0.008 0.199608,-0.0641 0.06693,-0.83049 -7.184334,-6.53813 -7.184334,-6.53813 0,0 9.756203,-5.88634 7.585701,-6.45993 z"
       fill-rule="evenodd"
       id="path128" />
    <path
       fill="#fbfbff"
       d="m 60.71196,147.92244 c -0.03999,-0.009 -0.08607,-0.0134 -0.138218,-0.0142 0,0 -7.177639,7.45319 -6.956207,8.54739 0.186203,0.9061 6.84951,3.71648 9.069115,4.19603 0.464916,0.10045 0.734791,0.0986 0.710918,-0.0452 -0.142753,-0.82869 -8.58057,-4.5561 -8.58057,-4.5561 0,0 7.639649,-7.751 5.894962,-8.12795 z"
       fill-rule="evenodd"
       id="path130" />
    <path
       fill="#fbfbff"
       d="m 47.669224,151.47423 c -0.04249,-0.009 -0.08857,-0.0139 -0.138218,-0.0142 0,0 -0.278305,0.45259 -0.708488,1.16011 0.291942,0.25926 0.589965,0.51462 0.895485,0.77159 0.389659,-1.04065 0.473625,-1.80467 -0.04878,-1.91754 z"
       fill-rule="evenodd"
       id="path132" />
    <defs
       id="defs139">
      <linearGradient
         id="g2cd3b45430e_0_140.7"
         gradientUnits="userSpaceOnUse"
         gradientTransform="matrix(6.413478,1.385665,-1.385665,6.413478,0,0)"
         spreadMethod="pad"
         x1="18.481085"
         y1="2.8504915"
         x2="18.481062"
         y2="9.2639694">
        <stop
           offset="0.0"
           stop-color="#fff4b8"
           id="stop134" />
        <stop
           offset="1.0"
           stop-color="#ffee97"
           id="stop136" />
      </linearGradient>
    </defs>
    <path
       fill="url(#g2cd3b45430e_0_140.7)"
       d="m 151.27289,73.34208 c -1.17822,5.453346 -4.47604,10.218552 -9.16853,13.241058 -4.68999,3.023048 -10.38774,4.06263 -15.84677,2.883179 -5.45402,-1.178368 -10.21439,-4.477478 -13.23802,-9.167099 -3.02612,-4.690155 -4.06253,-10.391785 -2.88431,-15.845139 1.17823,-5.453347 4.47551,-10.216049 9.16854,-13.241055 4.68945,-3.020554 10.38666,-4.057629 15.84069,-2.879261 5.45903,1.179451 10.21992,4.476059 13.24409,9.163177 3.02559,4.692658 4.06253,10.391785 2.88431,15.845139 z"
       fill-rule="evenodd"
       id="path141"
       style="fill:url(#g2cd3b45430e_0_140.7)" />
    <path
       fill="#fbfbff"
       d="m 60.926537,49.027325 c -0.177467,-0.03834 -0.344322,-0.01685 -0.505756,0.07646 -0.162854,0.08776 -0.259362,0.231712 -0.30148,0.426655 -0.03834,0.177444 -0.0082,0.3409 0.102768,0.493065 0.104599,0.145546 0.252152,0.23759 0.429619,0.275936 l -0.0011,0.005 4.626675,0.999619 -2.975262,13.770828 c -0.03834,0.177452 -0.0018,0.347526 0.105946,0.514686 0.106358,0.161621 0.264248,0.266365 0.474209,0.311722 0.189968,0.04105 0.368977,0.01171 0.530613,-0.09463 0.162174,-0.108841 0.26564,-0.248673 0.303978,-0.426117 l 2.975258,-13.770832 4.631668,1.000698 c 0.194969,0.04212 0.371818,0.02278 0.53109,-0.06052 0.15982,-0.0858 0.260246,-0.223679 0.30236,-0.418618 0.04158,-0.192443 0.0076,-0.361976 -0.100944,-0.513603 -0.109597,-0.146625 -0.261612,-0.242248 -0.456574,-0.284374 z"
       fill-rule="evenodd"
       id="path143" />
    <path
       fill="#fbfbff"
       d="m 75.89689,52.25913 c -0.207459,-0.04482 -0.395927,-0.02014 -0.560059,0.08565 -0.169136,0.104718 -0.26976,0.255627 -0.312423,0.453068 L 71.928193,67.12851 c -0.04211,0.194939 -0.02222,0.369271 0.07056,0.533196 0.09136,0.158378 0.249252,0.263122 0.474205,0.311729 0.177475,0.03834 0.353981,0.0085 0.525612,-0.09571 0.169678,-0.107216 0.289757,-0.251312 0.341873,-0.444091 l 0.005,0.0011 3.096214,-14.330666 c 0.04266,-0.197437 0.0108,-0.376968 -0.107513,-0.543793 -0.113312,-0.165741 -0.259781,-0.262783 -0.437256,-0.301128 z"
       fill-rule="evenodd"
       id="path145" />
    <path
       fill="#fbfbff"
       d="m 94.40769,56.250637 c -0.204964,-0.04428 -0.398491,0.01592 -0.583618,0.182583 l -7.835251,7.554386 -3.977638,-10.106621 c -0.06304,-0.107796 -0.137909,-0.197216 -0.241547,-0.27454 -0.09864,-0.07625 -0.201263,-0.121964 -0.306244,-0.144646 -0.197464,-0.04266 -0.372558,-0.0072 -0.526352,0.111248 -0.155754,0.115456 -0.25618,0.253327 -0.291816,0.418278 l -3.106476,14.378151 c -0.03834,0.177444 -0.01487,0.347321 0.07595,0.508202 0.09136,0.158378 0.231217,0.26184 0.426178,0.303962 0.194969,0.04212 0.37452,0.01028 0.528649,-0.09767 0.154136,-0.107956 0.253143,-0.251366 0.291481,-0.42881 l 2.678817,-12.39875 3.544457,9.181175 c 0.03501,0.104355 0.100418,0.189109 0.186562,0.262657 0.08864,0.07409 0.185722,0.121223 0.290702,0.143905 0.09998,0.0216 0.210366,0.01929 0.319184,-0.01214 0.103828,-0.0325 0.195892,-0.08324 0.258362,-0.166527 l 7.00589,-6.852016 -2.668015,12.348766 c -0.03834,0.177444 -0.0018,0.347519 0.103447,0.514137 0.103859,0.16108 0.257294,0.262245 0.452255,0.304367 0.192467,0.04159 0.375939,0.01582 0.54757,-0.08835 0.172172,-0.106674 0.275642,-0.246514 0.31398,-0.423958 l 3.10701,-14.380646 c 0.04212,-0.194942 0.01419,-0.368393 -0.08879,-0.521439 -0.09744,-0.154464 -0.24141,-0.250965 -0.418877,-0.28931 -0.02891,-0.01148 -0.05837,-0.02046 -0.08587,-0.0264 z"
       fill-rule="evenodd"
       id="path147" />
    <path
       fill="#fbfbff"
       d="m 100.02257,57.471607 c -0.197464,-0.04266 -0.370934,-0.01474 -0.520409,0.08376 -0.154136,0.107956 -0.255645,0.250828 -0.293983,0.428273 l -3.106476,14.378151 c -0.03834,0.177444 -0.0049,0.349479 0.09095,0.511436 0.09636,0.159462 0.243713,0.264549 0.438675,0.306671 l 8.223523,1.776734 c 0.19497,0.04212 0.3729,0.01778 0.53379,-0.07301 0.16482,-0.08472 0.26383,-0.228134 0.30648,-0.425575 0.0394,-0.182449 0.003,-0.352524 -0.10237,-0.519142 -0.10743,-0.156624 -0.25728,-0.262245 -0.45224,-0.304367 l -7.478665,-1.615807 1.320236,-6.110649 6.463849,1.396546 c 0.19746,0.04266 0.37484,0.02083 0.53574,-0.06998 0.16589,-0.08972 0.26436,-0.230637 0.30648,-0.425575 0.0383,-0.177445 0.002,-0.350022 -0.10345,-0.514138 -0.10689,-0.159126 -0.25728,-0.262245 -0.45476,-0.304908 l -6.471332,-1.398171 1.219262,-5.643291 7.48116,1.616344 c 0.19747,0.04266 0.37181,0.02278 0.53575,-0.06998 0.16285,-0.08776 0.26328,-0.225635 0.30648,-0.425575 0.0421,-0.194942 0.007,-0.370014 -0.10129,-0.524139 -0.10994,-0.157162 -0.25891,-0.254746 -0.45638,-0.297409 z"
       fill-rule="evenodd"
       id="path149" />
    <path
       fill="#fbfbff"
       d="m 54.72204,72.92509 c -0.359932,-0.07777 -0.694717,-0.02976 -0.992729,0.138664 -0.304432,0.161812 -0.495087,0.426682 -0.573384,0.78907 -0.0783,0.362389 -0.0115,0.682885 0.1927,0.972901 0.207779,0.285553 0.484302,0.470863 0.844238,0.54863 l 6.038918,1.304733 -3.994728,18.489403 c -0.0783,0.362396 -0.02278,0.698761 0.168182,1.00161 0.18684,0.309806 0.482281,0.504432 0.887211,0.591919 0.399925,0.08641 0.757408,0.03023 1.062439,-0.170685 0.31253,-0.199303 0.503387,-0.477204 0.581684,-0.839592 l 3.994728,-18.48941 6.036423,1.304199 c 0.362434,0.07831 0.696678,0.03281 0.99469,-0.13562 0.305511,-0.166809 0.493667,-0.432221 0.570877,-0.789612 0.0783,-0.362389 0.01454,-0.684845 -0.189118,-0.977356 -0.207779,-0.285553 -0.48484,-0.468361 -0.847274,-0.546669 z"
       fill-rule="evenodd"
       id="path151" />
    <path
       fill="#fbfbff"
       d="m 79.102,83.850716 c -0.782364,-0.169037 -1.535507,-0.182648 -2.25499,-0.03727 -0.715896,0.140923 -1.38665,0.411934 -2.000435,0.794655 -0.61486,0.387726 -1.160743,0.855751 -1.61872,1.413391 -0.158913,0.190636 -0.308373,0.385926 -0.442833,0.584458 v 0 l 0.480033,-2.221825 c 0.08262,-0.382385 0.03817,-0.721588 -0.146904,-1.01532 -0.180084,-0.292656 -0.458572,-0.481002 -0.841003,-0.563629 -0.359932,-0.07777 -0.688835,-0.02065 -0.983673,0.169396 -0.297333,0.189506 -0.484268,0.473488 -0.567963,0.86087 l -2.985519,13.818321 c -0.0783,0.362389 -0.02528,0.698219 0.16568,1.001068 0.186844,0.309799 0.462288,0.500107 0.822227,0.577873 0.359932,0.07777 0.687416,0.01511 0.984955,-0.187423 0.300568,-0.204499 0.488388,-0.480446 0.566681,-0.842835 l 1.668518,-7.722664 c 0.164154,-0.759773 0.449104,-1.448974 0.857689,-2.056526 0.408585,-0.607559 0.885078,-1.129807 1.431236,-1.55069 0.5467,-0.42337 1.115708,-0.732063 1.699334,-0.914642 0.583618,-0.182579 1.137886,-0.217171 1.667793,-0.102684 0.377426,0.08155 0.682792,0.218155 0.910751,0.398201 0.230454,0.180588 0.481369,0.302811 0.756317,0.362213 0.294945,0.06373 0.58474,0.006 0.864174,-0.161201 0.280518,-0.172211 0.46785,-0.48227 0.563965,-0.927132 0.08694,-0.402382 -0.03999,-0.759407 -0.381859,-1.066086 -0.344375,-0.30722 -0.750541,-0.510071 -1.215454,-0.610519 z"
       fill-rule="evenodd"
       id="path153" />
    <path
       fill="#fbfbff"
       d="m 89.78242,88.617226 c 1.062309,0.229515 1.937744,0.706413 2.635223,1.437836 0.693558,0.725349 1.168068,1.604789 1.42408,2.635841 0.254044,1.028 0.252754,2.123787 0.0011,3.288437 -0.256485,1.187142 -0.711479,2.203217 -1.369964,3.047142 -0.655991,0.844467 -1.456787,1.450988 -2.388474,1.827808 -0.936149,0.37324 -1.930381,0.44619 -2.992691,0.21666 -1.03981,-0.22465 -1.905792,-0.69688 -2.60131,-1.425266 -0.693558,-0.72535 -1.176995,-1.611954 -1.435837,-2.654076 -0.261887,-1.040161 -0.269318,-2.156143 -0.01229,-3.345787 0.255951,-1.184639 0.7229,-2.195511 1.388687,-3.024788 0.663826,-0.832306 1.463005,-1.431335 2.396454,-1.792076 0.931488,-0.363785 1.915176,-0.436386 2.954994,-0.211731 z m 0.157639,-2.424896 c -1.402253,-0.302963 -2.750863,-0.21241 -4.05333,0.270027 -1.299965,0.482979 -2.426872,1.291099 -3.369301,2.43206 -0.940803,1.133461 -1.592369,2.538689 -1.954155,4.213188 -0.356926,1.652001 -0.343071,3.19838 0.04318,4.631638 0.392677,1.43988 1.074707,2.654527 2.053924,3.656097 0.982804,0.99711 2.207115,1.6514 3.666855,1.96678 0.849846,0.18362 1.682099,0.20648 2.500885,0.0616 0.813782,-0.14593 1.552902,-0.39433 2.20398,-0.75591 0.574546,-0.31011 1.062553,-0.66768 1.464889,-1.0647 v 0 l -0.288879,1.33709 c -0.0783,0.36239 -0.03028,0.69714 0.148185,0.99729 0.181839,0.30873 0.457283,0.49904 0.839715,0.58166 0.362434,0.0783 0.689918,0.0156 0.987457,-0.18689 0.297531,-0.20254 0.485885,-0.48098 0.564186,-0.84337 l 3.027092,-14.010768 c 0.0783,-0.362389 0.03258,-0.683556 -0.151962,-0.97979 -0.180085,-0.292648 -0.461068,-0.481537 -0.843499,-0.564163 -0.382431,-0.08263 -0.710258,-0.03051 -1.003669,0.165077 -0.282883,0.195237 -0.464615,0.46727 -0.542908,0.829659 l -0.273773,1.267113 v 0 c -0.194969,-0.465897 -0.45533,-0.91977 -0.784127,-1.35965 -0.474739,-0.636215 -1.070182,-1.186028 -1.788826,-1.649971 -0.720596,-0.46698 -1.538589,-0.79805 -2.445922,-0.994087 z"
       fill-rule="evenodd"
       id="path155" />
    <path
       fill="#fbfbff"
       d="m 114.89412,91.71197 c -0.5424,-0.117195 -0.98174,0.07564 -1.32657,0.581871 l -7.60276,10.801259 -2.50293,-12.984647 c -0.0506,-0.298683 -0.17127,-0.539261 -0.37599,-0.72998 -0.20526,-0.188225 -0.4351,-0.311127 -0.68505,-0.365136 -0.40743,-0.08802 -0.73992,-0.02644 -1.01637,0.175415 -0.27808,0.209359 -0.4503,0.449433 -0.50969,0.72435 -0.027,0.124962 -0.036,0.251206 -0.0313,0.375153 0.007,0.126984 0.0132,0.217361 0.0222,0.284699 l 3.08973,15.402966 c 0.0613,0.32191 0.20121,0.58235 0.41126,0.78469 0.16209,0.15796 0.34714,0.25811 0.55459,0.30293 0.06,0.013 0.12606,0.022 0.19072,0.0255 0.51226,0.0871 0.94159,-0.10785 1.29049,-0.58443 l 9.17308,-12.75352 c 0.0671,-0.09275 0.12838,-0.194618 0.18301,-0.290062 0.0527,-0.09849 0.0956,-0.212173 0.12255,-0.337135 0.0729,-0.337402 0.0173,-0.637161 -0.16925,-0.899818 -0.19048,-0.268738 -0.44329,-0.430611 -0.75823,-0.498658 -0.022,-0.0074 -0.042,-0.01168 -0.0594,-0.01546 z"
       fill-rule="evenodd"
       id="path157" />
    <path
       fill="#fbfbff"
       d="m 125.54898,96.378784 c 0.78236,0.169037 1.49301,0.500458 2.12998,0.991226 0.64002,0.488808 1.13819,1.101311 1.50007,1.83609 0.36243,0.732277 0.49396,1.54024 0.39352,2.42888 l -0.0556,0.25742 -9.9982,-2.160169 c 0.15942,-0.386711 0.33986,-0.737495 0.54381,-1.051811 0.46396,-0.718544 0.99908,-1.269982 1.60375,-1.646828 0.6002,-0.380424 1.24036,-0.618805 1.91797,-0.715683 0.67706,-0.09438 1.32982,-0.07629 1.96471,0.06087 z m 0.5246,-2.379616 c -1.31227,-0.283523 -2.6346,-0.205612 -3.95984,0.224823 -1.32329,0.433472 -2.49356,1.224373 -3.50476,2.36879 -1.01119,1.144417 -1.71578,2.637588 -2.11428,4.482029 -0.35692,1.652 -0.31679,3.18575 0.1204,4.60124 0.43773,1.41299 1.21425,2.61405 2.32852,3.60817 1.11426,0.99412 2.51874,1.67426 4.21593,2.04094 1.14229,0.24681 2.2836,0.2318 3.40121,-0.0368 1.11761,-0.26864 2.05417,-0.66794 2.78607,-1.1978 0.42473,-0.22214 0.6749,-0.50816 0.75266,-0.86805 0.0637,-0.29491 0.0138,-0.57251 -0.15526,-0.83139 -0.1671,-0.25584 -0.40938,-0.41806 -0.72432,-0.4861 -0.25745,-0.0556 -0.54239,-0.0204 -0.85892,0.11264 -0.34115,0.23497 -0.74678,0.45339 -1.20827,0.6519 -0.46147,0.19851 -0.98519,0.33387 -1.56667,0.40966 -0.58094,0.0733 -1.25188,0.0304 -2.01425,-0.13436 -1.16479,-0.25166 -2.13379,-0.74353 -2.90699,-1.47563 -0.77821,-0.73317 -1.31379,-1.62057 -1.60729,-2.65972 -0.25856,-0.89818 -0.30534,-1.86833 -0.13732,-2.9124 l 11.52043,2.48905 c 0.34245,0.074 0.66473,0.0233 0.96774,-0.14406 0.29909,-0.17343 0.49901,-0.4206 0.5919,-0.75368 0.24277,-1.20842 0.25216,-2.3417 0.0349,-3.38267 -0.2167,-1.043485 -0.60536,-1.993321 -1.16405,-2.846478 -0.55726,-0.847626 -1.25013,-1.551895 -2.06918,-2.108162 -0.82208,-0.554306 -1.73357,-0.936966 -2.72839,-1.151902 z"
       fill-rule="evenodd"
       id="path159" />
    <path
       fill="#fbfbff"
       d="m 140.31856,90.089775 c -0.36244,-0.07831 -0.6985,-0.01227 -1.00496,0.183113 -0.31306,0.201798 -0.50392,0.479698 -0.58168,0.839592 l -4.51634,20.90367 c -0.0783,0.3624 -0.0253,0.69822 0.16568,1.00107 0.18684,0.30981 0.45979,0.49957 0.82222,0.57788 0.35994,0.0778 0.69742,0.0173 1.00246,-0.18365 0.31253,-0.1993 0.50588,-0.47667 0.58418,-0.83906 l 4.51634,-20.903666 c 0.0778,-0.359894 0.0322,-0.694099 -0.15068,-0.997826 -0.17738,-0.305153 -0.45479,-0.498497 -0.83722,-0.581123 z"
       fill-rule="evenodd"
       id="path161" />
    <path
       fill="#8686fa"
       d="m 117.56638,61.264656 c -0.17747,-0.03834 -0.34682,-0.01738 -0.50826,0.07592 -0.15785,0.08884 -0.25936,0.231713 -0.30147,0.426655 -0.0383,0.177448 -0.003,0.341984 0.10277,0.493069 0.10709,0.146084 0.25464,0.238128 0.43211,0.276474 l -10e-4,0.005 4.62667,0.999619 -2.97527,13.770832 c -0.0383,0.177444 -0.007,0.346435 0.0984,0.513061 0.10886,0.162163 0.26675,0.266899 0.47671,0.312264 0.19497,0.04213 0.37147,0.01225 0.53311,-0.09409 0.16467,-0.108299 0.26814,-0.248131 0.30648,-0.425575 l 2.97526,-13.770836 4.62917,1.00016 c 0.19496,0.04212 0.37431,0.02332 0.53108,-0.06052 0.15982,-0.0858 0.26026,-0.223679 0.30237,-0.418617 0.0416,-0.192444 0.008,-0.361977 -0.10095,-0.5136 -0.1071,-0.146087 -0.26161,-0.242252 -0.45657,-0.284374 z"
       fill-rule="evenodd"
       id="path163" />
    <path
       fill="#8686fa"
       d="m 137.61137,66.76479 c 1.19978,0.259216 2.19109,0.76899 2.97281,1.534309 0.77922,0.764786 1.32345,1.709 1.63022,2.8321 0.30818,1.12864 0.31791,2.354988 0.0296,3.689591 -0.28781,1.332092 -0.80351,2.447533 -1.54961,3.345779 -0.74055,0.896828 -1.62855,1.531594 -2.654,1.906472 -1.03295,0.373252 -2.14129,0.42939 -3.34107,0.170166 -1.18228,-0.25544 -2.17609,-0.765747 -2.97281,-1.534317 -0.79921,-0.769097 -1.34595,-1.713852 -1.64522,-2.835335 -0.3012,-1.124519 -0.30041,-2.351212 -0.0126,-3.683312 0.28835,-1.334594 0.79512,-2.457191 1.53264,-3.352058 0.73555,-0.897904 1.62356,-1.532677 2.66901,-1.903229 1.04295,-0.371094 2.15878,-0.425606 3.34106,-0.170166 z m 0.29105,-1.347099 c -1.1048,-0.238694 -2.16031,-0.257469 -3.16047,-0.06025 -0.99819,0.200264 -1.9165,0.587822 -2.74852,1.169297 -0.82592,0.577545 -1.53996,1.3153 -2.12515,2.219535 -0.58714,0.9012 -1.00895,1.945366 -1.26437,3.12751 -0.25649,1.187142 -0.30174,2.304818 -0.13902,3.368027 0.16023,1.062668 0.50599,2.029396 1.01875,2.901413 0.51828,0.87059 1.19414,1.605194 2.02116,2.197189 0.82952,0.59253 1.79311,1.012612 2.90291,1.252388 1.0898,0.235459 2.14336,0.251191 3.14851,0.05505 1.00765,-0.195603 1.9265,-0.585663 2.75797,-1.164628 0.83202,-0.581474 1.53854,-1.320846 2.1107,-2.22528 0.58464,-0.901734 1.00092,-1.944489 1.25632,-3.126625 0.25542,-1.182145 0.3073,-2.306244 0.14706,-3.368912 -0.14718,-1.062462 -0.48545,-2.027573 -1.00428,-2.895668 -0.51775,-0.873093 -1.19361,-1.607697 -2.03063,-2.201851 -0.83452,-0.593613 -1.80113,-1.011734 -2.89094,-1.247192 z"
       fill-rule="evenodd"
       id="path165" />
  </g>
</svg>
