<?xml version="1.0" encoding="UTF-8" standalone="no"?>
<svg
   version="1.1"
   viewBox="0 0 52.690143 64"
   fill="none"
   stroke="none"
   stroke-linecap="square"
   stroke-miterlimit="10"
   id="svg27"
   sodipodi:docname="suit.svg"
   width="52.690144"
   height="64"
   inkscape:version="1.2.1 (9c6d41e410, 2022-07-14)"
   xmlns:inkscape="http://www.inkscape.org/namespaces/inkscape"
   xmlns:sodipodi="http://sodipodi.sourceforge.net/DTD/sodipodi-0.dtd"
   xmlns="http://www.w3.org/2000/svg"
   xmlns:svg="http://www.w3.org/2000/svg">
  <defs
     id="defs31" />
  <sodipodi:namedview
     id="namedview29"
     pagecolor="#505050"
     bordercolor="#eeeeee"
     borderopacity="1"
     inkscape:showpageshadow="0"
     inkscape:pageopacity="0"
     inkscape:pagecheckerboard="0"
     inkscape:deskcolor="#505050"
     showgrid="false"
     inkscape:zoom="8.527184"
     inkscape:cx="-11.199477"
     inkscape:cy="35.709327"
     inkscape:window-width="1920"
     inkscape:window-height="1001"
     inkscape:window-x="-9"
     inkscape:window-y="-9"
     inkscape:window-maximized="1"
     inkscape:current-layer="g25" />
  <clipPath
     id="g2cd3b45430e_0_72.0">
    <path
       d="M 0,0 H 960 V 540 H 0 Z"
       clip-rule="nonzero"
       id="path2" />
  </clipPath>
  <g
     clip-path="url(#g2cd3b45430e_0_72.0)"
     id="g25">
    <path
       fill="#f8eba8"
       d="m 17.389284,7.160552 -2.533641,3.164985 h 2.059445 l 1.372963,-1.5824922 c 0.157147,-0.212286 0.157147,-0.5017662 -0.02757,-0.6864824 z"
       fill-rule="evenodd"
       id="path17" />
    <g
       id="g813"
       transform="matrix(1.8111864,0,0,1.8111864,-0.00209178,-0.00632441)">
      <path
         fill="#ffee97"
         d="m 14.552348,4.4946203 c -0.129577,0 -0.26191,0.052382 -0.355647,0.1571464 L 10.847,8.0566073 c -0.184715,0.1847152 -0.184715,0.4741954 -0.02757,0.6864815 l 1.372964,1.5824932 h 4.722665 l 1.372963,-1.5824932 c 0.157146,-0.212286 0.157146,-0.5017662 -0.02757,-0.6864815 l -3.3497,-3.4048406 C 14.817016,4.5470028 14.684683,4.4946203 14.552348,4.4946203 Z"
         fill-rule="evenodd"
         id="path15" />
      <g
         id="g803">
        <path
           fill="#a6a6ff"
           d="m 6.730883,3.016903 c -0.052383,0 -0.1323342,0 -0.1847162,0.027569 L 0.31820478,5.5753575 C 0.13348876,5.6553093 0.00115492,5.8400255 0.00115492,6.052311 v 28.757801 c 0,0.289482 0.21228556,0.529335 0.5017659,0.529335 H 28.549428 c 0.292238,0 0.501766,-0.239853 0.501766,-0.529335 V 6.077124 c 0.02757,-0.2095284 -0.104763,-0.3942442 -0.28948,-0.5017657 l -6.227963,-2.530885 c -0.05238,-0.027569 -0.104763,-0.027569 -0.184715,-0.027569 h -0.05238 c -0.184718,0 -0.369433,0.079952 -0.446627,0.2370982 L 18.629903,8.42605 18.26047,8.0290488 c -0.09925,-0.099251 -0.231582,-0.1433621 -0.366674,-0.1433621 -0.148876,0 -0.300509,0.057896 -0.399758,0.1709318 L 15.83435,9.9837301 C 15.726829,10.113307 15.702017,10.27321 15.726829,10.430357 l 3.244937,16.729206 -4.430427,4.30085 -4.433185,-4.30085 3.272506,-16.729206 C 13.40547,10.27321 13.35309,10.113307 13.248326,9.9837301 L 11.610695,8.0566185 c -0.110278,-0.1130357 -0.261911,-0.1709318 -0.40803,-0.1709318 -0.129576,0 -0.256396,0.044111 -0.355647,0.1433621 L 10.477586,8.42605 7.2326497,3.254002 C 7.1526979,3.0968556 6.9927944,3.0169038 6.8080786,3.0169038 Z"
           fill-rule="evenodd"
           id="path7" />
        <path
           fill="#ffee97"
           d="m 12.798946,9.401995 c -0.264668,0 -0.474196,0.1847162 -0.526579,0.4493837 L 8.8675276,27.449024 c -0.052383,0.184717 0,0.369432 0.1323338,0.501766 l 5.1720476,5.012146 c 0.104765,0.09374 0.242613,0.140602 0.377704,0.140602 0.13509,0 0.267424,-0.04687 0.36116,-0.140602 l 5.169291,-5.012146 c 0.132334,-0.132334 0.184718,-0.317049 0.159905,-0.501766 L 16.835128,9.8513787 C 16.782747,9.5867112 16.545648,9.401995 16.308549,9.401995 Z"
           fill-rule="evenodd"
           id="path11" />
        <path
           fill="#ffee97"
           d="m 14.670841,9.401995 3.352457,17.255783 -4.802616,5.381578 0.95115,0.898766 c 0.104764,0.104767 0.242612,0.157146 0.377703,0.157146 0.13509,0 0.267424,-0.05238 0.361161,-0.157146 l 5.16929,-5.0149 c 0.132334,-0.104765 0.184718,-0.28948 0.159905,-0.474197 L 16.83505,9.8513796 C 16.782669,9.5867121 16.54557,9.4019958 16.308471,9.4019958 Z"
           fill-rule="evenodd"
           id="path13" />
        <path
           fill="#0e1a3f"
           d="m 7.9163966,0.00902887 c -0.5265784,0 -0.738864,0.65891236 -0.2894802,0.95114964 L 14.249123,5.4457451 c 0.09374,0.052382 0.198501,0.077195 0.300508,0.077195 0.102008,0 0.201258,-0.024813 0.28121,-0.077195 l 6.649776,-4.48556659 c 0.184716,-0.13233387 0.261912,-0.36943203 0.209528,-0.5817176 -0.07995,-0.21228556 -0.264667,-0.369432 -0.501766,-0.369432 z"
           fill-rule="evenodd"
           id="path19" />
        <path
           fill="#5f5ff6"
           d="m 7.919053,0.00349186 c -0.2122855,0 -0.4135432,0.12406299 -0.5017657,0.32256377 L 6.2814216,3.2291294 c -0.079952,0.1571465 -0.052383,0.3142929 0.027569,0.4741965 l 3.6391816,5.8309603 c 0.079951,0.1323337 0.2122858,0.2095289 0.3694318,0.2370987 h 0.05238 c 0.159904,0 0.292238,-0.052382 0.369432,-0.1571465 L 14.91069,5.3657694 C 15.015456,5.2610054 15.067838,5.1011019 15.067838,4.9439555 15.040269,4.7840519 14.963073,4.6517182 14.83074,4.5745235 L 8.208533,0.08895688 C 8.1147964,0.03106082 8.0155465,0.00349126 7.919053,0.00349186 Z"
           fill-rule="evenodd"
           id="path21" />
        <path
           fill="#5f5ff6"
           d="m 21.188316,0.00349186 c -0.09649,0 -0.1985,0.02756956 -0.28948,0.08546562 L 14.24906,4.5745241 C 13.987149,4.7592398 13.95958,5.1286723 14.171865,5.36577 l 4.168516,4.248469 c 0.0772,0.104764 0.20953,0.1571465 0.369433,0.1571465 h 0.05238 c 0.157147,-0.02757 0.28948,-0.104765 0.369433,-0.2370987 l 3.641939,-5.8309603 c 0.07719,-0.1599036 0.104763,-0.31705 0.05238,-0.4741965 L 21.665269,0.32605624 C 21.590831,0.12755544 21.397846,0.00349247 21.188316,0.00349186 Z"
           fill-rule="evenodd"
           id="path23" />
      </g>
    </g>
  </g>
</svg>
